<?xml version="1.0" encoding="UTF-8" standalone="no"?>
<!-- Generated by graphviz version 2.26.3 (20100126.1600)
 -->

<!-- Title: G Pages: 1 -->

<svg
   xmlns:dc="http://purl.org/dc/elements/1.1/"
   xmlns:cc="http://creativecommons.org/ns#"
   xmlns:rdf="http://www.w3.org/1999/02/22-rdf-syntax-ns#"
   xmlns:svg="http://www.w3.org/2000/svg"
   xmlns="http://www.w3.org/2000/svg"
   xmlns:sodipodi="http://sodipodi.sourceforge.net/DTD/sodipodi-0.dtd"
   xmlns:inkscape="http://www.inkscape.org/namespaces/inkscape"
   width="924pt"
   height="573pt"
   viewBox="0.00 0.00 924.00 573.00"
   id="svg2"
   version="1.1"
   inkscape:version="0.48.5 r10040"
   sodipodi:docname="mesa.svg">
  <metadata
     id="metadata461">
    <rdf:RDF>
      <cc:Work
         rdf:about="">
        <dc:format>image/svg+xml</dc:format>
        <dc:type
           rdf:resource="http://purl.org/dc/dcmitype/StillImage" />
        <dc:title />
      </cc:Work>
    </rdf:RDF>
  </metadata>
  <defs
     id="defs459" />
  <sodipodi:namedview
     pagecolor="#ffffff"
     bordercolor="#666666"
     borderopacity="1"
     objecttolerance="10"
     gridtolerance="10"
     guidetolerance="10"
     inkscape:pageopacity="0"
     inkscape:pageshadow="2"
     inkscape:window-width="1920"
     inkscape:window-height="1145"
     id="namedview457"
     showgrid="false"
     inkscape:zoom="0.89260752"
     inkscape:cx="876.21235"
     inkscape:cy="560.25711"
     inkscape:window-x="-2"
     inkscape:window-y="-3"
     inkscape:window-maximized="1"
     inkscape:current-layer="graph1" />
  <g
     id="graph1"
     class="graph"
     transform="scale(1 1) rotate(0) translate(4 569)">
    <title
       id="title5">G</title>
    <polygon
       fill="azure"
       stroke="azure"
       points="-4,5 -4,-569 921,-569 921,5 -4,5"
       id="polygon7" />
    <g
       id="graph2"
       class="cluster">
      <title
         id="title10">cluster0</title>
      <polygon
         points="197,-480 197,-557 643,-557 643,-480 197,-480"
         id="polygon12"
         stroke="black"
         fill="azure" />
      <text
         x="420"
         y="-540.4"
         font-size="14.00"
         id="text14"
         text-anchor="middle"
         font-family="Times Roman,serif"> Applications </text>
    </g>
    <g
       id="graph3"
       class="cluster">
      <title
         id="title17">cluster1</title>
      <polygon
         points="8,-472 908,-472 908,-120 8,-120 8,-120 "
         id="polygon19"
         style="fill:#f0ffff;stroke:#000000" />
      <text
         x="458"
         y="-455.39999"
         font-size="14.00"
         id="text21"
         style="font-size:14px;text-anchor:middle;font-family:'Times Roman,serif'">Mesa</text>
    </g>
    <g
       id="graph4"
       class="cluster">
      <title
         id="title24">cluster2</title>
      <polygon
         fill="azure"
         stroke="black"
         points="16,-128 16,-395 560,-395 560,-128 16,-128"
         id="polygon26" />
      <text
         text-anchor="middle"
         x="288"
         y="-378.4"
         font-family="Times Roman,serif"
         font-size="14.00"
         id="text28">Gallium</text>
    </g>
    <g
       id="graph5"
       class="cluster">
      <title
         id="title31">cluster4</title>
      <polygon
         fill="azure"
         stroke="black"
         points="254,-285 254,-362 552,-362 552,-285 254,-285"
         id="polygon33" />
      <text
         text-anchor="middle"
         x="403"
         y="-345.4"
         font-family="Times Roman,serif"
         font-size="14.00"
         id="text35">State trackers</text>
    </g>
    <g
       id="graph6"
       class="cluster">
      <title
         id="title38">cluster5</title>
      <polygon
         fill="azure"
         stroke="black"
         points="24,-136 24,-213 552,-213 552,-136 24,-136"
         id="polygon40" />
      <text
         text-anchor="middle"
         x="288"
         y="-196.4"
         font-family="Times Roman,serif"
         font-size="14.00"
         id="text42">drivers (compilers)</text>
    </g>
    <g
       id="graph7"
       class="cluster">
      <title
         id="title45">cluster3</title>
      <polygon
         fill="azure"
         stroke="black"
         points="568,-285 568,-362 900,-362 900,-285 568,-285"
         id="polygon47" />
      <text
         text-anchor="middle"
         x="734"
         y="-345.4"
         font-family="Times Roman,serif"
         font-size="14.00"
         id="text49">Mesa Classics (simplified)</text>
    </g>
    <!-- wayland_compositor -->
    <g
       id="node2"
       class="node"
       transform="translate(0,0.39302219)">
      <title
         id="title52">wayland_compositor</title>
      <polygon
         points="339,-524 205,-524 205,-488 339,-488 339,-524 "
         id="polygon54"
         transform="matrix(0.53186463,0,0,1.0023289,95.925829,1.1784114)"
         style="fill:#b2dfee;stroke:#b2dfee" />
      <text
         x="240.90746"
         y="-500.94824"
         font-size="14.00"
         id="text56"
         style="font-size:14px;text-anchor:middle;font-family:'Times Roman,serif'">X-Server</text>
    </g>
    <!-- egl -->
    <g
       id="node13"
       class="node">
      <title
         id="title59">egl</title>
      <polygon
         fill="#b2dfee"
         stroke="#b2dfee"
         points="316,-329 262,-329 262,-293 316,-293 316,-329"
         id="polygon61" />
      <text
         x="289"
         y="-306.89999"
         font-size="14.00"
         id="text63"
         style="font-size:14px;text-anchor:middle;font-family:'Times Roman,serif'">xorg</text>
    </g>
    <!-- wayland_compositor&#45;&gt;egl -->
    <g
       id="edge68"
       class="edge"
       style="stroke:#000000;stroke-opacity:1">
      <title
         id="title66">wayland_compositor-&gt;egl</title>
      <path
         d="m 240.51796,-487.3515 c 2.982,34.204 43.09603,79.68689 46.02504,148.1695"
         id="path68"
         style="fill:none;stroke:#000000;stroke-opacity:1"
         inkscape:connector-curvature="0"
         sodipodi:nodetypes="cc" />
      <polygon
         fill="gold"
         stroke="gold"
         points="290.035,-339.421 287.417,-329.154 283.062,-338.813 290.035,-339.421"
         id="polygon70"
         style="stroke:#000000;stroke-opacity:1" />
    </g>
    <!-- x&#45;server -->
    <g
       id="node3"
       class="node"
       transform="translate(-54.4,0.26969804)">
      <title
         id="title73">x-server</title>
      <polygon
         points="419,-524 419,-524 357,-524 357,-488 419,-488 "
         id="polygon75"
         style="fill:#b2dfee;stroke:#b2dfee"
         transform="matrix(1.1440409,0,0,0.99975374,-59.160441,-0.1246063)" />
      <text
         x="385.04187"
         y="-500.94824"
         font-size="14.00"
         id="text77"
         style="font-size:14px;text-anchor:middle;font-family:'Times Roman,serif'">Wine</text>
    </g>
    <!-- xorg -->
    <g
       id="node12"
       class="node">
      <title
         id="title80">xorg</title>
      <polygon
         fill="#b2dfee"
         stroke="#b2dfee"
         points="388,-329 334,-329 334,-293 388,-293 388,-329"
         id="polygon82" />
      <text
         x="361"
         y="-306.89999"
         font-size="14.00"
         id="text84"
         style="font-size:14px;text-anchor:middle;font-family:'Times Roman,serif'">Nine</text>
    </g>
    <!-- x&#45;server&#45;&gt;xorg -->
    <g
       id="edge72"
       class="edge"
       style="stroke:#000000;stroke-opacity:1"
       transform="translate(-3.2,0)">
      <title
         id="title87">x-server-&gt;xorg</title>
      <path
         d="m 333.25873,-487.04801 c -0.18356,39.36343 35.62016,75.07607 31.2639,147.86601"
         id="path89"
         style="fill:none;stroke:#000000;stroke-opacity:1;stroke-width:1;stroke-miterlimit:4;stroke-dasharray:6,2;stroke-dashoffset:0"
         inkscape:connector-curvature="0"
         sodipodi:nodetypes="cc" />
      <polygon
         points="361.418,-339.54 368.352,-338.58 368.352,-338.58 363.514,-329.154 "
         id="polygon91"
         style="fill:#ffd700;stroke:#000000;stroke-opacity:1"
         transform="matrix(0.99009322,-0.14041159,0.14041159,0.99009322,50.566256,47.934656)" />
    </g>
    <!-- wine -->
    <g
       id="node4"
       class="node"
       transform="translate(-51.2,0.29999978)">
      <title
         id="title94">wine</title>
      <polygon
         points="437,-524 437,-488 491,-488 491,-524 491,-524 "
         id="polygon96"
         style="fill:#b2dfee;stroke:#b2dfee"
         transform="matrix(1.3121627,0,0,0.99602178,-136.34348,-2.0129791)" />
      <text
         x="472.66406"
         y="-500.99609"
         font-size="14.00"
         id="text98"
         style="font-size:14px;text-anchor:middle;font-family:'Times Roman,serif'">Weston</text>
    </g>
    <!-- D3d1x -->
    <g
       id="node11"
       class="node">
      <title
         id="title101">D3d1x</title>
      <polygon
         fill="#b2dfee"
         stroke="#b2dfee"
         points="460,-329 406,-329 406,-293 460,-293 460,-329"
         id="polygon103" />
      <text
         x="433"
         y="-306.89999"
         font-size="14.00"
         id="text105"
         style="font-size:14px;text-anchor:middle;font-family:'Times Roman,serif'">EGL</text>
    </g>
    <!-- wine&#45;&gt;D3d1x -->
    <g
       id="edge70"
       class="edge"
       style="stroke:#000000;stroke-opacity:1;stroke-width:1;stroke-miterlimit:4;stroke-dasharray:none">
      <title
         id="title108">wine-&gt;D3d1x</title>
      <path
         d="M 422.98864,-487.27787 C 440.48907,-413.19544 446.50325,-379.743 437.48,-339.182"
         id="path110"
         style="fill:none;stroke:#000000;stroke-width:1;stroke-miterlimit:4;stroke-opacity:1;stroke-dasharray:none;stroke-dashoffset:0"
         inkscape:connector-curvature="0"
         sodipodi:nodetypes="cc" />
      <polygon
         fill="gold"
         stroke="gold"
         points="440.913,-338.481 435.886,-329.154 434,-339.58 440.913,-338.481"
         id="polygon112"
         style="stroke:#000000;stroke-opacity:1;stroke-width:1;stroke-miterlimit:4;stroke-dasharray:none" />
    </g>
    <!-- nexuiz -->
    <g
       id="node5"
       class="node"
       transform="translate(-27.2,0.29999978)">
      <title
         id="title115">nexuiz</title>
      <polygon
         points="563,-524 563,-524 509,-524 509,-488 563,-488 "
         id="polygon117"
         transform="matrix(1.3121627,0,0,0.99602178,-158.81919,-2.0129791)"
         style="fill:#b2dfee;stroke:#b2dfee" />
      <text
         x="544.78369"
         y="-500.94824"
         font-size="14.00"
         id="text119"
         style="font-size:14px;text-anchor:middle;font-family:'Times Roman,serif'">Xonotic</text>
    </g>
    <!-- libgl -->
    <g
       id="node39"
       class="node">
      <title
         id="title122">libgl</title>
      <polygon
         fill="#b2dfee"
         stroke="#b2dfee"
         points="635,-439 581,-439 581,-403 635,-403 635,-439"
         id="polygon124" />
      <text
         text-anchor="middle"
         x="608"
         y="-416.9"
         font-family="Times Roman,serif"
         font-size="14.00"
         id="text126">libgl</text>
    </g>
    <!-- nexuiz&#45;&gt;libgl -->
    <g
       id="edge66"
       class="edge"
       style="stroke:#000000;stroke-opacity:1">
      <title
         id="title129">nexuiz-&gt;libgl</title>
      <path
         fill="none"
         stroke="gold"
         d="M551.269,-487.974C561.388,-476.028 574.821,-460.17 586.076,-446.883"
         id="path131"
         style="stroke:#000000;stroke-opacity:1" />
      <polygon
         fill="gold"
         stroke="gold"
         points="588.96,-448.893 592.753,-439 583.619,-444.369 588.96,-448.893"
         id="polygon133"
         style="stroke:#000000;stroke-opacity:1" />
    </g>
    <!-- Qt -->
    <g
       id="node6"
       class="node"
       transform="translate(0,0.3)">
      <title
         id="title136">Qt</title>
      <polygon
         points="581,-524 581,-488 635,-488 635,-524 635,-524 "
         id="polygon138"
         style="fill:#b2dfee;stroke:#b2dfee" />
      <text
         x="607.66504"
         y="-501.92578"
         font-size="14.00"
         id="text140"
         style="font-size:14px;text-anchor:middle;font-family:'Times Roman,serif'">Qt</text>
    </g>
    <!-- Qt&#45;&gt;libgl -->
    <g
       id="edge64"
       class="edge"
       style="stroke:#000000;stroke-opacity:1">
      <title
         id="title143">Qt-&gt;libgl</title>
      <path
         fill="none"
         stroke="gold"
         d="M608,-487.974C608,-476.704 608,-461.952 608,-449.163"
         id="path145"
         style="stroke:#000000;stroke-opacity:1" />
      <polygon
         fill="gold"
         stroke="gold"
         points="611.5,-449 608,-439 604.5,-449 611.5,-449"
         id="polygon147"
         style="stroke:#000000;stroke-opacity:1" />
    </g>
    <!-- OpenGL -->
    <g
       id="node10"
       class="node">
      <title
         id="title150">OpenGL</title>
      <polygon
         fill="#b2dfee"
         stroke="#b2dfee"
         points="544,-329 478,-329 478,-293 544,-293 544,-329"
         id="polygon152" />
      <text
         text-anchor="middle"
         x="511"
         y="-306.9"
         font-family="Times Roman,serif"
         font-size="14.00"
         id="text154">OpenGL</text>
    </g>
    <!-- TGSI -->
    <g
       id="node23"
       class="node">
      <title
         id="title157">TGSI</title>
      <polygon
         fill="#b2dfee"
         stroke="#b2dfee"
         points="388,-257 334,-257 334,-221 388,-221 388,-257"
         id="polygon159" />
      <text
         x="361"
         y="-234.89999"
         font-size="14.00"
         id="text161"
         style="font-size:14px;text-anchor:middle;font-family:'Times Roman,serif'">Gallium</text>
    </g>
    <!-- OpenGL&#45;&gt;TGSI -->
    <g
       id="edge7"
       class="edge"
       style="stroke:#000000;stroke-opacity:1">
      <title
         id="title164">OpenGL-&gt;TGSI</title>
      <path
         fill="none"
         stroke="gold"
         d="M483.439,-292.833C478.714,-290.041 473.784,-287.32 469,-285 439.179,-270.538 427.181,-271.985 397.564,-259.352"
         id="path166"
         style="stroke:#000000;stroke-opacity:1" />
      <polygon
         fill="gold"
         stroke="gold"
         points="398.8,-256.071 388.244,-255.17 395.935,-262.457 398.8,-256.071"
         id="polygon168"
         style="stroke:#000000;stroke-opacity:1" />
    </g>
    <!-- D3d1x&#45;&gt;TGSI -->
    <g
       id="edge9"
       class="edge"
       style="stroke:#000000;stroke-opacity:1">
      <title
         id="title171">D3d1x-&gt;TGSI</title>
      <path
         fill="none"
         stroke="gold"
         d="M414.831,-292.831C406.285,-284.285 395.944,-273.944 386.62,-264.62"
         id="path173"
         style="stroke:#000000;stroke-opacity:1" />
      <polygon
         fill="gold"
         stroke="gold"
         points="388.959,-262.009 379.413,-257.413 384.009,-266.959 388.959,-262.009"
         id="polygon175"
         style="stroke:#000000;stroke-opacity:1" />
    </g>
    <!-- xorg&#45;&gt;TGSI -->
    <g
       id="edge11"
       class="edge"
       style="stroke:#000000;stroke-opacity:1">
      <title
         id="title178">xorg-&gt;TGSI</title>
      <path
         fill="none"
         stroke="gold"
         d="M361,-292.831C361,-285.131 361,-275.974 361,-267.417"
         id="path180"
         style="stroke:#000000;stroke-opacity:1" />
      <polygon
         fill="gold"
         stroke="gold"
         points="364.5,-267.413 361,-257.413 357.5,-267.413 364.5,-267.413"
         id="polygon182"
         style="stroke:#000000;stroke-opacity:1" />
    </g>
    <!-- egl&#45;&gt;TGSI -->
    <g
       id="edge13"
       class="edge"
       style="stroke:#000000;stroke-opacity:1">
      <title
         id="title185">egl-&gt;TGSI</title>
      <path
         fill="none"
         stroke="gold"
         d="M307.169,-292.831C315.715,-284.285 326.056,-273.944 335.38,-264.62"
         id="path187"
         style="stroke:#000000;stroke-opacity:1" />
      <polygon
         fill="gold"
         stroke="gold"
         points="337.991,-266.959 342.587,-257.413 333.041,-262.009 337.991,-266.959"
         id="polygon189"
         style="stroke:#000000;stroke-opacity:1" />
    </g>
    <!-- r300g -->
    <g
       id="node15"
       class="node">
      <title
         id="title192">r300g</title>
      <polygon
         fill="#b2dfee"
         stroke="#b2dfee"
         points="392,-180 338,-180 338,-144 392,-144 392,-180"
         id="polygon194" />
      <text
         x="365"
         y="-157.89999"
         font-size="14.00"
         id="text196"
         style="font-size:14px;text-anchor:middle;font-family:'Times Roman,serif'">nvc0</text>
    </g>
    <!-- GPU -->
    <g
       id="node46"
       class="node">
      <title
         id="title199">GPU</title>
      <polygon
         fill="#b2dfee"
         stroke="#b2dfee"
         points="506,-108 452,-108 452,-72 506,-72 506,-108"
         id="polygon201" />
      <text
         x="478.92822"
         y="-95.499992"
         font-size="14.00"
         id="text203"
         style="font-size:14px;text-anchor:middle;font-family:'Times Roman,serif'">GPU</text>
    </g>
    <!-- r300g&#45;&gt;GPU -->
    <g
       id="edge40"
       class="edge"
       style="stroke:#000000;stroke-opacity:1">
      <title
         id="title206">r300g-&gt;GPU</title>
      <path
         fill="none"
         stroke="gold"
         d="M377.358,-143.82C383.654,-135.65 391.899,-126.424 401,-120 413.304,-111.315 428.455,-104.74 442.12,-99.993"
         id="path208"
         style="stroke:#000000;stroke-opacity:1" />
      <polygon
         fill="gold"
         stroke="gold"
         points="443.324,-103.282 451.746,-96.8551 441.154,-96.6267 443.324,-103.282"
         id="polygon210"
         style="stroke:#000000;stroke-opacity:1" />
    </g>
    <!-- r600g -->
    <g
       id="node16"
       class="node">
      <title
         id="title213">r600g</title>
      <polygon
         fill="#b2dfee"
         stroke="#b2dfee"
         points="320,-180 266,-180 266,-144 320,-144 320,-180"
         id="polygon215" />
      <text
         x="293"
         y="-157.89999"
         font-size="14.00"
         id="text217"
         style="font-size:14px;text-anchor:middle;font-family:'Times Roman,serif'">r300g</text>
    </g>
    <!-- r600g&#45;&gt;GPU -->
    <g
       id="edge42"
       class="edge"
       style="stroke:#000000;stroke-opacity:1">
      <title
         id="title220">r600g-&gt;GPU</title>
      <path
         fill="none"
         stroke="gold"
         d="M304.265,-143.965C310.524,-135.416 319.055,-125.824 329,-120 347.696,-109.051 403.491,-99.8726 441.502,-94.6551"
         id="path222"
         style="stroke:#000000;stroke-opacity:1" />
      <polygon
         fill="gold"
         stroke="gold"
         points="442.258,-98.0853 451.705,-93.2904 441.33,-91.147 442.258,-98.0853"
         id="polygon224"
         style="stroke:#000000;stroke-opacity:1" />
    </g>
    <!-- r800g -->
    <g
       id="node17"
       class="node">
      <title
         id="title227">r800g</title>
      <polygon
         fill="#b2dfee"
         stroke="#b2dfee"
         points="248,-180 194,-180 194,-144 248,-144 248,-180"
         id="polygon229" />
      <text
         x="221"
         y="-157.89999"
         font-size="14.00"
         id="text231"
         style="font-size:14px;text-anchor:middle;font-family:'Times Roman,serif'">r600g</text>
    </g>
    <!-- r800g&#45;&gt;GPU -->
    <g
       id="edge44"
       class="edge"
       style="stroke:#000000;stroke-opacity:1">
      <title
         id="title234">r800g-&gt;GPU</title>
      <path
         fill="none"
         stroke="gold"
         d="M232.114,-143.697C238.334,-135.08 246.877,-125.507 257,-120 288.052,-103.107 386.944,-95.0782 441.673,-91.8428"
         id="path236"
         style="stroke:#000000;stroke-opacity:1" />
      <polygon
         fill="gold"
         stroke="gold"
         points="441.889,-95.3363 451.675,-91.2759 441.493,-88.3475 441.889,-95.3363"
         id="polygon238"
         style="stroke:#000000;stroke-opacity:1" />
    </g>
    <!-- nvfx -->
    <g
       id="node18"
       class="node">
      <title
         id="title241">nvfx</title>
      <polygon
         fill="#b2dfee"
         stroke="#b2dfee"
         points="544,-180 490,-180 490,-144 544,-144 544,-180"
         id="polygon243" />
      <text
         x="517"
         y="-157.89999"
         font-size="14.00"
         id="text245"
         style="font-size:14px;text-anchor:middle;font-family:'Times Roman,serif'">nv30</text>
    </g>
    <!-- nvfx&#45;&gt;GPU -->
    <g
       id="edge48"
       class="edge"
       style="stroke:#000000;stroke-opacity:1">
      <title
         id="title248">nvfx-&gt;GPU</title>
      <path
         fill="none"
         stroke="gold"
         d="M507.411,-143.831C503.168,-135.792 498.088,-126.167 493.404,-117.292"
         id="path250"
         style="stroke:#000000;stroke-opacity:1" />
      <polygon
         fill="gold"
         stroke="gold"
         points="496.481,-115.623 488.718,-108.413 490.29,-118.891 496.481,-115.623"
         id="polygon252"
         style="stroke:#000000;stroke-opacity:1" />
    </g>
    <!-- nouveau -->
    <g
       id="node19"
       class="node">
      <title
         id="title255">nouveau</title>
      <polygon
         fill="#b2dfee"
         stroke="#b2dfee"
         points="472,-180 410,-180 410,-144 472,-144 472,-180"
         id="polygon257" />
      <text
         x="441"
         y="-157.89999"
         font-size="14.00"
         id="text259"
         style="font-size:14px;text-anchor:middle;font-family:'Times Roman,serif'">nv50</text>
    </g>
    <!-- nouveau&#45;&gt;GPU -->
    <g
       id="edge46"
       class="edge"
       style="stroke:#000000;stroke-opacity:1">
      <title
         id="title262">nouveau-&gt;GPU</title>
      <path
         fill="none"
         stroke="gold"
         d="M450.589,-143.831C454.832,-135.792 459.912,-126.167 464.596,-117.292"
         id="path264"
         style="stroke:#000000;stroke-opacity:1" />
      <polygon
         fill="gold"
         stroke="gold"
         points="467.71,-118.891 469.282,-108.413 461.519,-115.623 467.71,-118.891"
         id="polygon266"
         style="stroke:#000000;stroke-opacity:1" />
    </g>
    <!-- softpipe -->
    <g
       id="node20"
       class="node">
      <title
         id="title269">softpipe</title>
      <polygon
         fill="#b2dfee"
         stroke="#b2dfee"
         points="94,-180 32,-180 32,-144 94,-144 94,-180"
         id="polygon271" />
      <text
         text-anchor="middle"
         x="63"
         y="-157.9"
         font-family="Times Roman,serif"
         font-size="14.00"
         id="text273">softpipe</text>
    </g>
    <!-- CPU -->
    <g
       id="node55"
       class="node">
      <title
         id="title276">CPU</title>
      <polygon
         fill="#b2dfee"
         stroke="#b2dfee"
         points="171,-36 117,-36 117,-1.06581e-14 171,-0 171,-36"
         id="polygon278" />
      <text
         text-anchor="middle"
         x="144"
         y="-13.9"
         font-family="Times Roman,serif"
         font-size="14.00"
         id="text280">CPU</text>
    </g>
    <!-- softpipe&#45;&gt;CPU -->
    <g
       id="edge56"
       class="edge"
       style="stroke:#000000;stroke-opacity:1">
      <title
         id="title283">softpipe-&gt;CPU</title>
      <path
         fill="none"
         stroke="gold"
         d="M71.3197,-143.722C79.8999,-125.287 93.9707,-96.175 108,-72 113.289,-62.8867 119.517,-53.2257 125.294,-44.6332"
         id="path285"
         style="stroke:#000000;stroke-opacity:1" />
      <polygon
         fill="gold"
         stroke="gold"
         points="128.348,-46.367 131.091,-36.1335 122.565,-42.4227 128.348,-46.367"
         id="polygon287"
         style="stroke:#000000;stroke-opacity:1" />
    </g>
    <!-- llvmpipe -->
    <g
       id="node21"
       class="node">
      <title
         id="title290">llvmpipe</title>
      <polygon
         fill="#b2dfee"
         stroke="#b2dfee"
         points="176,-180 112,-180 112,-144 176,-144 176,-180"
         id="polygon292" />
      <text
         text-anchor="middle"
         x="144"
         y="-157.9"
         font-family="Times Roman,serif"
         font-size="14.00"
         id="text294">llvmpipe</text>
    </g>
    <!-- LLVM -->
    <g
       id="node57"
       class="node">
      <title
         id="title297">LLVM</title>
      <polygon
         fill="#b2dfee"
         stroke="#b2dfee"
         points="171,-108 117,-108 117,-72 171,-72 171,-108"
         id="polygon299" />
      <text
         text-anchor="middle"
         x="144"
         y="-85.9"
         font-family="Times Roman,serif"
         font-size="14.00"
         id="text301">LLVM</text>
    </g>
    <!-- llvmpipe&#45;&gt;LLVM -->
    <g
       id="edge58"
       class="edge"
       style="stroke:#000000;stroke-opacity:1">
      <title
         id="title304">llvmpipe-&gt;LLVM</title>
      <path
         fill="none"
         stroke="gold"
         d="M144,-143.831C144,-136.131 144,-126.974 144,-118.417"
         id="path306"
         style="stroke:#000000;stroke-opacity:1" />
      <polygon
         fill="gold"
         stroke="gold"
         points="147.5,-118.413 144,-108.413 140.5,-118.413 147.5,-118.413"
         id="polygon308"
         style="stroke:#000000;stroke-opacity:1" />
    </g>
    <!-- TGSI&#45;&gt;r300g -->
    <g
       id="edge15"
       class="edge"
       style="stroke:#000000;stroke-opacity:1">
      <title
         id="title311">TGSI-&gt;r300g</title>
      <path
         fill="none"
         stroke="gold"
         d="M361.948,-220.752C362.421,-211.642 363.004,-200.417 363.534,-190.228"
         id="path313"
         style="stroke:#000000;stroke-opacity:1" />
      <polygon
         fill="gold"
         stroke="gold"
         points="367.035,-190.285 364.059,-180.117 360.045,-189.922 367.035,-190.285"
         id="polygon315"
         style="stroke:#000000;stroke-opacity:1" />
    </g>
    <!-- TGSI&#45;&gt;r600g -->
    <g
       id="edge17"
       class="edge"
       style="stroke:#000000;stroke-opacity:1">
      <title
         id="title318">TGSI-&gt;r600g</title>
      <path
         fill="none"
         stroke="gold"
         d="M337.266,-220.963C334.371,-218.407 331.542,-215.72 329,-213 322.153,-205.673 315.552,-196.98 309.914,-188.865"
         id="path320"
         style="stroke:#000000;stroke-opacity:1" />
      <polygon
         fill="gold"
         stroke="gold"
         points="312.693,-186.725 304.209,-180.379 306.884,-190.631 312.693,-186.725"
         id="polygon322"
         style="stroke:#000000;stroke-opacity:1" />
    </g>
    <!-- TGSI&#45;&gt;r800g -->
    <g
       id="edge19"
       class="edge"
       style="stroke:#000000;stroke-opacity:1">
      <title
         id="title325">TGSI-&gt;r800g</title>
      <path
         fill="none"
         stroke="gold"
         d="M333.77,-234.414C307.308,-229.567 269.361,-221.466 257,-213 248.014,-206.845 240.535,-197.663 234.765,-188.778"
         id="path327"
         style="stroke:#000000;stroke-opacity:1" />
      <polygon
         fill="gold"
         stroke="gold"
         points="237.716,-186.894 229.572,-180.117 231.712,-190.493 237.716,-186.894"
         id="polygon329"
         style="stroke:#000000;stroke-opacity:1" />
    </g>
    <!-- TGSI&#45;&gt;nvfx -->
    <g
       id="edge23"
       class="edge"
       style="stroke:#000000;stroke-opacity:1">
      <title
         id="title332">TGSI-&gt;nvfx</title>
      <path
         fill="none"
         stroke="gold"
         d="M388.082,-222.416C389.386,-221.891 390.695,-221.415 392,-221 410.924,-214.983 463.796,-222.917 481,-213 490.577,-207.479 498.238,-198.262 503.989,-189.169"
         id="path334"
         style="stroke:#000000;stroke-opacity:1" />
      <polygon
         fill="gold"
         stroke="gold"
         points="507.16,-190.676 509.103,-180.26 501.089,-187.191 507.16,-190.676"
         id="polygon336"
         style="stroke:#000000;stroke-opacity:1" />
    </g>
    <!-- TGSI&#45;&gt;nouveau -->
    <g
       id="edge21"
       class="edge"
       style="stroke:#000000;stroke-opacity:1">
      <title
         id="title339">TGSI-&gt;nouveau</title>
      <path
         fill="none"
         stroke="gold"
         d="M388.151,-223.101C392.634,-219.992 397.089,-216.578 401,-213 408.97,-205.708 416.587,-196.713 422.996,-188.318"
         id="path341"
         style="stroke:#000000;stroke-opacity:1" />
      <polygon
         fill="gold"
         stroke="gold"
         points="425.857,-190.335 428.97,-180.208 420.221,-186.183 425.857,-190.335"
         id="polygon343"
         style="stroke:#000000;stroke-opacity:1" />
    </g>
    <!-- TGSI&#45;&gt;softpipe -->
    <g
       id="edge25"
       class="edge"
       style="stroke:#000000;stroke-opacity:1">
      <title
         id="title346">TGSI-&gt;softpipe</title>
      <path
         fill="none"
         stroke="gold"
         d="M333.601,-237.453C271.301,-233.763 122.868,-223.933 103,-213 92.8396,-207.409 84.377,-198.054 77.892,-188.871"
         id="path348"
         style="stroke:#000000;stroke-opacity:1" />
      <polygon
         fill="gold"
         stroke="gold"
         points="80.6729,-186.727 72.2894,-180.249 74.8032,-190.541 80.6729,-186.727"
         id="polygon350"
         style="stroke:#000000;stroke-opacity:1" />
    </g>
    <!-- TGSI&#45;&gt;llvmpipe -->
    <g
       id="edge27"
       class="edge"
       style="stroke:#000000;stroke-opacity:1">
      <title
         id="title353">TGSI-&gt;llvmpipe</title>
      <path
         fill="none"
         stroke="gold"
         d="M333.964,-237.41C291.102,-234.494 209.859,-227.239 185,-213 174.735,-207.121 166.038,-197.587 159.331,-188.344"
         id="path355"
         style="stroke:#000000;stroke-opacity:1" />
      <polygon
         fill="gold"
         stroke="gold"
         points="162.233,-186.388 153.743,-180.05 156.428,-190.299 162.233,-186.388"
         id="polygon357"
         style="stroke:#000000;stroke-opacity:1" />
    </g>
    <!-- intel -->
    <g
       id="node35"
       class="node">
      <title
         id="title360">intel</title>
      <polygon
         fill="#b2dfee"
         stroke="#b2dfee"
         points="630,-329 576,-329 576,-293 630,-293 630,-329"
         id="polygon362" />
      <text
         text-anchor="middle"
         x="603"
         y="-306.9"
         font-family="Times Roman,serif"
         font-size="14.00"
         id="text364">intel</text>
    </g>
    <!-- intel&#45;&gt;GPU -->
    <g
       id="edge54"
       class="edge"
       style="stroke:#000000;stroke-opacity:1">
      <title
         id="title367">intel-&gt;GPU</title>
      <path
         fill="none"
         stroke="gold"
         d="M603.74,-292.733C604.245,-255.542 600.148,-170.307 556,-120 545.697,-108.26 530.23,-101.079 515.856,-96.7036"
         id="path369"
         style="stroke:#000000;stroke-opacity:1" />
      <polygon
         fill="gold"
         stroke="gold"
         points="516.721,-93.312 506.155,-94.101 514.907,-100.073 516.721,-93.312"
         id="polygon371"
         style="stroke:#000000;stroke-opacity:1" />
    </g>
    <!-- radeon -->
    <g
       id="node36"
       class="node">
      <title
         id="title374">radeon</title>
      <polygon
         fill="#b2dfee"
         stroke="#b2dfee"
         points="702,-329 648,-329 648,-293 702,-293 702,-329"
         id="polygon376" />
      <text
         text-anchor="middle"
         x="675"
         y="-306.9"
         font-family="Times Roman,serif"
         font-size="14.00"
         id="text378">radeon</text>
    </g>
    <!-- radeon&#45;&gt;GPU -->
    <g
       id="edge50"
       class="edge"
       style="stroke:#000000;stroke-opacity:1">
      <title
         id="title381">radeon-&gt;GPU</title>
      <path
         fill="none"
         stroke="gold"
         d="M672.352,-292.935C665.812,-254.972 645.299,-166.585 591,-120 579.706,-110.311 544.103,-101.807 516.034,-96.3514"
         id="path383"
         style="stroke:#000000;stroke-opacity:1" />
      <polygon
         fill="gold"
         stroke="gold"
         points="516.568,-92.8904 506.093,-94.4827 515.275,-99.7699 516.568,-92.8904"
         id="polygon385"
         style="stroke:#000000;stroke-opacity:1" />
    </g>
    <!-- nouveau_vieux -->
    <g
       id="node37"
       class="node">
      <title
         id="title388">nouveau_vieux</title>
      <polygon
         fill="#b2dfee"
         stroke="#b2dfee"
         points="820,-329 720,-329 720,-293 820,-293 820,-329"
         id="polygon390" />
      <text
         text-anchor="middle"
         x="770"
         y="-306.9"
         font-family="Times Roman,serif"
         font-size="14.00"
         id="text392">nouveau_vieux</text>
    </g>
    <!-- nouveau_vieux&#45;&gt;GPU -->
    <g
       id="edge52"
       class="edge"
       style="stroke:#000000;stroke-opacity:1">
      <title
         id="title395">nouveau_vieux-&gt;GPU</title>
      <path
         fill="none"
         stroke="gold"
         d="M762.756,-292.74C746.375,-254.001 702.57,-163.573 635,-120 615.798,-107.617 556.101,-98.6961 516.373,-93.943"
         id="path397"
         style="stroke:#000000;stroke-opacity:1" />
      <polygon
         fill="gold"
         stroke="gold"
         points="516.581,-90.4437 506.244,-92.7691 515.775,-97.3972 516.581,-90.4437"
         id="polygon399"
         style="stroke:#000000;stroke-opacity:1" />
    </g>
    <!-- swrast -->
    <g
       id="node38"
       class="node">
      <title
         id="title402">swrast</title>
      <polygon
         fill="#b2dfee"
         stroke="#b2dfee"
         points="892,-329 838,-329 838,-293 892,-293 892,-329"
         id="polygon404" />
      <text
         text-anchor="middle"
         x="865"
         y="-306.9"
         font-family="Times Roman,serif"
         font-size="14.00"
         id="text406">swrast</text>
    </g>
    <!-- swrast&#45;&gt;CPU -->
    <g
       id="edge60"
       class="edge"
       style="stroke:#000000;stroke-opacity:1">
      <title
         id="title409">swrast-&gt;CPU</title>
      <path
         fill="none"
         stroke="gold"
         d="M853.829,-292.87C829.4,-254.783 767.339,-166.171 692,-120 605.061,-66.7199 289.92,-32.0406 181.189,-21.4421"
         id="path411"
         style="stroke:#000000;stroke-opacity:1" />
      <polygon
         fill="gold"
         stroke="gold"
         points="181.319,-17.9385 171.029,-20.4637 180.648,-24.9063 181.319,-17.9385"
         id="polygon413"
         style="stroke:#000000;stroke-opacity:1" />
    </g>
    <!-- libgl&#45;&gt;OpenGL -->
    <g
       id="edge30"
       class="edge"
       style="stroke:#000000;stroke-opacity:1">
      <title
         id="title416">libgl-&gt;OpenGL</title>
      <path
         fill="none"
         stroke="gold"
         d="M580.966,-407.764C574.989,-404.119 568.965,-399.822 564,-395 547.197,-378.68 533.303,-356.027 523.962,-338.358"
         id="path418"
         style="stroke:#000000;stroke-opacity:1" />
      <polygon
         fill="gold"
         stroke="gold"
         points="526.914,-336.443 519.252,-329.127 520.679,-339.625 526.914,-336.443"
         id="polygon420"
         style="stroke:#000000;stroke-opacity:1" />
    </g>
    <!-- libgl&#45;&gt;intel -->
    <g
       id="edge36"
       class="edge"
       style="stroke:#000000;stroke-opacity:1">
      <title
         id="title423">libgl-&gt;intel</title>
      <path
         fill="none"
         stroke="gold"
         d="M607.174,-402.836C606.389,-385.559 605.196,-359.309 604.286,-339.292"
         id="path425"
         style="stroke:#000000;stroke-opacity:1" />
      <polygon
         fill="gold"
         stroke="gold"
         points="607.777,-339.022 603.827,-329.191 600.785,-339.34 607.777,-339.022"
         id="polygon427"
         style="stroke:#000000;stroke-opacity:1" />
    </g>
    <!-- libgl&#45;&gt;radeon -->
    <g
       id="edge32"
       class="edge"
       style="stroke:#000000;stroke-opacity:1">
      <title
         id="title430">libgl-&gt;radeon</title>
      <path
         fill="none"
         stroke="gold"
         d="M632.157,-402.76C634.643,-400.312 636.989,-397.707 639,-395 651.575,-378.071 660.797,-356.078 666.757,-338.842"
         id="path432"
         style="stroke:#000000;stroke-opacity:1" />
      <polygon
         fill="gold"
         stroke="gold"
         points="670.09,-339.911 669.89,-329.318 663.441,-337.723 670.09,-339.911"
         id="polygon434"
         style="stroke:#000000;stroke-opacity:1" />
    </g>
    <!-- libgl&#45;&gt;nouveau_vieux -->
    <g
       id="edge34"
       class="edge"
       style="stroke:#000000;stroke-opacity:1">
      <title
         id="title437">libgl-&gt;nouveau_vieux</title>
      <path
         fill="none"
         stroke="gold"
         d="M635.463,-416.303C661.651,-411.431 698.847,-403.366 711,-395 731.595,-380.823 747.337,-356.957 757.359,-338.279"
         id="path439"
         style="stroke:#000000;stroke-opacity:1" />
      <polygon
         fill="gold"
         stroke="gold"
         points="760.5,-339.824 761.945,-329.328 754.27,-336.632 760.5,-339.824"
         id="polygon441"
         style="stroke:#000000;stroke-opacity:1" />
    </g>
    <!-- libgl&#45;&gt;swrast -->
    <g
       id="edge38"
       class="edge"
       style="stroke:#000000;stroke-opacity:1">
      <title
         id="title444">libgl-&gt;swrast</title>
      <path
         fill="none"
         stroke="gold"
         d="M635.376,-419.308C691.102,-415.645 813.756,-406.386 829,-395 846.805,-381.702 855.903,-357.811 860.492,-338.898"
         id="path446"
         style="stroke:#000000;stroke-opacity:1" />
      <polygon
         fill="gold"
         stroke="gold"
         points="863.94,-339.513 862.604,-329.002 857.094,-338.051 863.94,-339.513"
         id="polygon448"
         style="stroke:#000000;stroke-opacity:1" />
    </g>
    <!-- LLVM&#45;&gt;CPU -->
    <g
       id="edge62"
       class="edge"
       style="stroke:#000000;stroke-opacity:1">
      <title
         id="title451">LLVM-&gt;CPU</title>
      <path
         fill="none"
         stroke="gold"
         d="M144,-71.8314C144,-64.131 144,-54.9743 144,-46.4166"
         id="path453"
         style="stroke:#000000;stroke-opacity:1" />
      <polygon
         fill="gold"
         stroke="gold"
         points="147.5,-46.4132 144,-36.4133 140.5,-46.4133 147.5,-46.4132"
         id="polygon455"
         style="stroke:#000000;stroke-opacity:1" />
    </g>
    <text
       xml:space="preserve"
       style="font-size:16px;font-style:normal;font-weight:normal;text-align:center;line-height:125%;letter-spacing:0px;word-spacing:0px;text-anchor:middle;fill:#000000;fill-opacity:1;stroke:none;font-family:Bitstream Vera Sans"
       x="479"
       y="-85.173088"
       id="text3250"
       sodipodi:linespacing="125%"><tspan
         sodipodi:role="line"
         id="tspan3252"
         x="479"
         y="-85.173088"
         style="font-size:9.60000038px;text-align:center;text-anchor:middle">(through</tspan><tspan
         sodipodi:role="line"
         x="479"
         y="-73.173088"
         style="font-size:9.60000038px;text-align:center;text-anchor:middle"
         id="tspan4103">libdrm)</tspan></text>
    <polygon
       points="368.352,-338.58 368.352,-338.58 363.514,-329.154 361.418,-339.54 "
       id="polygon91-9"
       style="fill:#ffd700;stroke:#000000;stroke-opacity:1"
       transform="matrix(0.48621166,-0.87384105,0.87384105,0.48621166,690.23797,42.28937)" />
    <polygon
       points="368.352,-338.58 363.514,-329.154 361.418,-339.54 368.352,-338.58 "
       id="polygon91-1"
       style="fill:#ffd700;stroke:#000000;stroke-opacity:1"
       transform="matrix(0.03684829,-0.99932085,0.99932085,0.03684829,896.81575,-51.871659)" />
    <path
       d="m 355.42977,-487.88184 c -0.18356,39.36343 144.49155,47.39982 216.59087,58.81876"
       id="path89-7"
       style="fill:none;stroke:#000000;stroke-width:1;stroke-opacity:1"
       inkscape:connector-curvature="0"
       sodipodi:nodetypes="cc" />
    <path
       d="m 452.18672,-487.10999 c 4.34126,18.01156 96.09364,29.76067 119.06441,45.46598"
       id="path110-6"
       style="fill:none;stroke:#000000;stroke-width:1;stroke-miterlimit:4;stroke-opacity:1;stroke-dasharray:none;stroke-dashoffset:0"
       inkscape:connector-curvature="0"
       sodipodi:nodetypes="cc" />
  </g>
</svg>
