<?xml version="1.0" encoding="UTF-8" standalone="no"?>
<!DOCTYPE svg PUBLIC "-//W3C//DTD SVG 1.1//EN"
 "http://www.w3.org/Graphics/SVG/1.1/DTD/svg11.dtd">
<!-- Generated by graphviz version 2.28.0 (20120524.1247)
 -->
<!-- Title: Xorg Pages: 1 -->
<svg width="1150pt" height="522pt"
 viewBox="0.00 0.00 1150.00 522.00" xmlns="http://www.w3.org/2000/svg" xmlns:xlink="http://www.w3.org/1999/xlink">
<g id="graph1" class="graph" transform="scale(1 1) rotate(0) translate(4 518)">
<title>Xorg</title>
<polygon fill="white" stroke="white" points="-4,5 -4,-518 1147,-518 1147,5 -4,5"/>
<g id="graph2" class="cluster"><title>cluster_client</title>
<polygon fill="none" stroke="green" points="524,-343 524,-506 791,-506 791,-343 524,-343"/>
<text text-anchor="middle" x="657.5" y="-490.8" font-family="Times,serif" font-size="14.00">Client</text>
</g>
<g id="graph3" class="cluster"><title>clusterLibraries</title>
<polygon fill="none" stroke="black" points="532,-351 532,-475 783,-475 783,-351 532,-351"/>
</g>
<g id="graph4" class="cluster"><title>cluster_server</title>
<polygon fill="none" stroke="blue" points="306,-8 306,-335 1054,-335 1054,-8 306,-8"/>
<text text-anchor="middle" x="680" y="-319.8" font-family="Times,serif" font-size="14.00">Server</text>
</g>
<g id="graph5" class="cluster"><title>cluster_ddx</title>
<polygon fill="none" stroke="purple" points="692,-16 692,-304 1046,-304 1046,-16 692,-16"/>
<text text-anchor="middle" x="869" y="-288.8" font-family="Times,serif" font-size="14.00">DDX</text>
</g>
<g id="graph6" class="cluster"><title>clusterAcceleration</title>
<polygon fill="none" stroke="purple" points="700,-24 700,-171 1038,-171 1038,-24 700,-24"/>
<text text-anchor="middle" x="869" y="-155.8" font-family="Times,serif" font-size="14.00">Acceleration Architectures</text>
</g>
<g id="graph7" class="cluster"><title>cluster_dix</title>
<polygon fill="none" stroke="purple" points="422,-200 422,-275 657,-275 657,-200 422,-200"/>
<text text-anchor="middle" x="539.5" y="-259.8" font-family="Times,serif" font-size="14.00">DIX</text>
</g>
<g id="graph8" class="cluster"><title>cluster_extensions</title>
<polygon fill="none" stroke="purple" points="314,-96 314,-171 684,-171 684,-96 314,-96"/>
<text text-anchor="middle" x="499" y="-155.8" font-family="Times,serif" font-size="14.00">Extensions</text>
</g>
<g id="graph9" class="cluster"><title>cluster_hw</title>
<polygon fill="none" stroke="grey" points="8,-96 8,-171 298,-171 298,-96 8,-96"/>
<text text-anchor="middle" x="153" y="-155.8" font-family="Times,serif" font-size="14.00">Hardware devices</text>
</g>
<!-- Cairo -->
<g id="node3" class="node"><title>Cairo</title>
<ellipse fill="none" stroke="black" cx="744" cy="-449" rx="30.3206" ry="18"/>
<text text-anchor="middle" x="744" y="-445.3" font-family="Times,serif" font-size="14.00">Cairo</text>
</g>
<!-- OpenGL -->
<g id="node5" class="node"><title>OpenGL</title>
<ellipse fill="none" stroke="black" cx="733" cy="-377" rx="41.394" ry="18"/>
<text text-anchor="middle" x="733" y="-373.3" font-family="Times,serif" font-size="14.00">OpenGL</text>
</g>
<!-- Cairo&#45;&gt;OpenGL -->
<g id="edge6" class="edge"><title>Cairo&#45;&gt;OpenGL</title>
<path fill="none" stroke="black" d="M741.337,-431.055C740.126,-423.346 738.661,-414.027 737.3,-405.364"/>
<polygon fill="black" stroke="black" points="740.725,-404.611 735.715,-395.275 733.81,-405.697 740.725,-404.611"/>
</g>
<!-- Xlib or xcb -->
<g id="node6" class="node"><title>Xlib or xcb</title>
<ellipse fill="none" stroke="black" cx="607" cy="-377" rx="51.0191" ry="18"/>
<text text-anchor="middle" x="607" y="-373.3" font-family="Times,serif" font-size="14.00">Xlib or xcb</text>
</g>
<!-- Cairo&#45;&gt;Xlib or xcb -->
<g id="edge4" class="edge"><title>Cairo&#45;&gt;Xlib or xcb</title>
<path fill="none" stroke="black" d="M721.684,-436.597C700.707,-425.88 668.915,-409.636 644.121,-396.967"/>
<polygon fill="black" stroke="black" points="645.495,-393.739 634.998,-392.305 642.31,-399.972 645.495,-393.739"/>
</g>
<!-- Pango -->
<g id="node4" class="node"><title>Pango</title>
<ellipse fill="none" stroke="black" cx="663" cy="-449" rx="32.2457" ry="18"/>
<text text-anchor="middle" x="663" y="-445.3" font-family="Times,serif" font-size="14.00">Pango</text>
</g>
<!-- Pango&#45;&gt;Xlib or xcb -->
<g id="edge8" class="edge"><title>Pango&#45;&gt;Xlib or xcb</title>
<path fill="none" stroke="black" d="M650.293,-432.116C643.334,-423.418 634.559,-412.448 626.73,-402.663"/>
<polygon fill="black" stroke="black" points="629.418,-400.42 620.438,-394.797 623.952,-404.793 629.418,-400.42"/>
</g>
<!-- Mesa -->
<g id="node49" class="node"><title>Mesa</title>
<ellipse fill="none" stroke="black" cx="1093" cy="-226" rx="30.3206" ry="18"/>
<text text-anchor="middle" x="1093" y="-222.3" font-family="Times,serif" font-size="14.00">Mesa</text>
</g>
<!-- OpenGL&#45;&gt;Mesa -->
<g id="edge52" class="edge"><title>OpenGL&#45;&gt;Mesa</title>
<path fill="none" stroke="black" d="M774.345,-375.725C850.239,-374.417 1007.87,-367.716 1050,-335 1075.11,-315.505 1085.6,-279.119 1089.95,-254.004"/>
<polygon fill="black" stroke="black" points="1093.43,-254.425 1091.47,-244.013 1086.51,-253.375 1093.43,-254.425"/>
</g>
<!-- Dispatch -->
<g id="node25" class="node"><title>Dispatch</title>
<ellipse fill="none" stroke="black" cx="607" cy="-226" rx="42.3701" ry="18"/>
<text text-anchor="middle" x="607" y="-222.3" font-family="Times,serif" font-size="14.00">Dispatch</text>
</g>
<!-- Xlib or xcb&#45;&gt;Dispatch -->
<g id="edge38" class="edge"><title>Xlib or xcb&#45;&gt;Dispatch</title>
<path fill="none" stroke="black" d="M607,-358.908C607,-333.446 607,-285.284 607,-254.735"/>
<polygon fill="black" stroke="black" points="610.5,-254.352 607,-244.352 603.5,-254.352 610.5,-254.352"/>
</g>
<!-- Toolkit -->
<g id="node10" class="node"><title>Toolkit</title>
<ellipse fill="none" stroke="black" cx="576" cy="-449" rx="36.096" ry="18"/>
<text text-anchor="middle" x="576" y="-445.3" font-family="Times,serif" font-size="14.00">Toolkit</text>
</g>
<!-- Toolkit&#45;&gt;Xlib or xcb -->
<g id="edge10" class="edge"><title>Toolkit&#45;&gt;Xlib or xcb</title>
<path fill="none" stroke="black" d="M583.504,-431.055C587.031,-423.091 591.318,-413.411 595.26,-404.51"/>
<polygon fill="black" stroke="black" points="598.5,-405.836 599.35,-395.275 592.1,-403.002 598.5,-405.836"/>
</g>
<!-- Event_Queue -->
<g id="node13" class="node"><title>Event_Queue</title>
<ellipse fill="none" stroke="black" cx="488" cy="-226" rx="58.2422" ry="18"/>
<text text-anchor="middle" x="488" y="-222.3" font-family="Times,serif" font-size="14.00">Event_Queue</text>
</g>
<!-- Event_Queue&#45;&gt;Xlib or xcb -->
<g id="edge50" class="edge"><title>Event_Queue&#45;&gt;Xlib or xcb</title>
<path fill="none" stroke="black" d="M496.368,-243.899C507.901,-266.211 530.206,-306.049 556,-335 562.084,-341.828 569.384,-348.416 576.535,-354.24"/>
<polygon fill="black" stroke="black" points="574.747,-357.285 584.778,-360.694 579.062,-351.773 574.747,-357.285"/>
</g>
<!-- Input Drivers -->
<g id="node15" class="node"><title>Input Drivers</title>
<polygon fill="none" stroke="red" points="788.25,-270.5 699.75,-270.5 699.75,-181.5 788.25,-181.5 788.25,-270.5"/>
<polyline fill="none" stroke="red" points="711.75,-270.5 699.75,-258.5 "/>
<polyline fill="none" stroke="red" points="699.75,-193.5 711.75,-181.5 "/>
<polyline fill="none" stroke="red" points="776.25,-181.5 788.25,-193.5 "/>
<polyline fill="none" stroke="red" points="788.25,-258.5 776.25,-270.5 "/>
<text text-anchor="middle" x="744" y="-222.3" font-family="Times,serif" font-size="14.00">Input Drivers</text>
</g>
<!-- Input Drivers&#45;&gt;Event_Queue -->
<g id="edge46" class="edge"><title>Input Drivers&#45;&gt;Event_Queue</title>
<path fill="none" stroke="black" d="M725.47,-270.66C710.565,-299.013 686.398,-331.7 652,-339 633.088,-343.013 583.912,-343.013 565,-339 560.718,-338.091 559.303,-337.872 556,-335 530.11,-312.492 510.784,-277.684 499.48,-253.481"/>
<polygon fill="black" stroke="black" points="502.569,-251.818 495.268,-244.14 496.188,-254.695 502.569,-251.818"/>
</g>
<!-- Xinput -->
<g id="node29" class="node"><title>Xinput</title>
<polygon fill="none" stroke="black" points="462,-140 412.549,-122 462,-104 511.451,-122 462,-140"/>
<polyline fill="none" stroke="black" points="423.825,-126.104 423.825,-117.896 "/>
<polyline fill="none" stroke="black" points="450.724,-108.104 473.276,-108.104 "/>
<polyline fill="none" stroke="black" points="500.175,-117.896 500.175,-126.104 "/>
<polyline fill="none" stroke="black" points="473.276,-135.896 450.724,-135.896 "/>
<text text-anchor="middle" x="462" y="-118.3" font-family="Times,serif" font-size="14.00">Xinput</text>
</g>
<!-- Input Drivers&#45;&gt;Xinput -->
<g id="edge44" class="edge"><title>Input Drivers&#45;&gt;Xinput</title>
<path fill="none" stroke="black" d="M699.513,-195.576C687.478,-188.971 674.136,-182.8 661,-179 631.065,-170.341 550.053,-182.269 521,-171 505.744,-165.082 491.433,-153.646 480.727,-143.421"/>
<polygon fill="black" stroke="black" points="483.147,-140.892 473.606,-136.286 478.192,-145.836 483.147,-140.892"/>
</g>
<!-- Video Drivers -->
<g id="node16" class="node"><title>Video Drivers</title>
<polygon fill="none" stroke="red" points="901,-273 807,-273 807,-179 901,-179 901,-273"/>
<polyline fill="none" stroke="red" points="819,-273 807,-261 "/>
<polyline fill="none" stroke="red" points="807,-191 819,-179 "/>
<polyline fill="none" stroke="red" points="889,-179 901,-191 "/>
<polyline fill="none" stroke="red" points="901,-261 889,-273 "/>
<text text-anchor="middle" x="854" y="-222.3" font-family="Times,serif" font-size="14.00">Video Drivers</text>
</g>
<!-- Acceleration_2D -->
<g id="node18" class="node"><title>Acceleration_2D</title>
<ellipse fill="none" stroke="black" cx="959" cy="-122" rx="70.2668" ry="18"/>
<text text-anchor="middle" x="959" y="-118.3" font-family="Times,serif" font-size="14.00">Acceleration_2D</text>
</g>
<!-- Video Drivers&#45;&gt;Acceleration_2D -->
<g id="edge18" class="edge"><title>Video Drivers&#45;&gt;Acceleration_2D</title>
<path fill="none" stroke="black" d="M901.189,-185.564C914.765,-172.719 928.806,-158.842 939.713,-147.428"/>
<polygon fill="black" stroke="black" points="942.428,-149.649 946.718,-139.962 937.323,-144.859 942.428,-149.649"/>
</g>
<!-- Acceleration_Video -->
<g id="node19" class="node"><title>Acceleration_Video</title>
<ellipse fill="none" stroke="black" cx="789" cy="-122" rx="81.3646" ry="18"/>
<text text-anchor="middle" x="789" y="-118.3" font-family="Times,serif" font-size="14.00">Acceleration_Video</text>
</g>
<!-- Video Drivers&#45;&gt;Acceleration_Video -->
<g id="edge21" class="edge"><title>Video Drivers&#45;&gt;Acceleration_Video</title>
<path fill="none" stroke="black" d="M831.267,-178.775C824.663,-168.23 817.497,-157.409 810.931,-148.139"/>
<polygon fill="black" stroke="black" points="813.569,-145.816 804.857,-139.786 807.907,-149.932 813.569,-145.816"/>
</g>
<!-- Display -->
<g id="node38" class="node"><title>Display</title>
<ellipse fill="none" stroke="black" cx="252" cy="-122" rx="38.0212" ry="18"/>
<text text-anchor="middle" x="252" y="-118.3" font-family="Times,serif" font-size="14.00">Display</text>
</g>
<!-- Video Drivers&#45;&gt;Display -->
<g id="edge60" class="edge"><title>Video Drivers&#45;&gt;Display</title>
<path fill="none" stroke="purple" stroke-dasharray="5,2" d="M806.862,-183.418C803.645,-181.711 800.347,-180.213 797,-179 746.12,-160.559 360.765,-189.754 310,-171 296.126,-165.875 283.186,-155.902 273.063,-146.369"/>
<polygon fill="purple" stroke="purple" points="275.463,-143.819 265.904,-139.252 270.529,-148.784 275.463,-143.819"/>
</g>
<!-- Acceleration_2D&#45;&gt;Video Drivers -->
<g id="edge17" class="edge"><title>Acceleration_2D&#45;&gt;Video Drivers</title>
<path fill="none" stroke="black" d="M937.112,-139.303C926.945,-148.186 914.507,-159.738 902.362,-171.47"/>
<polygon fill="black" stroke="black" points="899.583,-169.291 894.861,-178.775 904.467,-174.305 899.583,-169.291"/>
</g>
<!-- Pixman -->
<g id="node20" class="node"><title>Pixman</title>
<ellipse fill="none" stroke="black" cx="959" cy="-50" rx="38.0212" ry="18"/>
<text text-anchor="middle" x="959" y="-46.3" font-family="Times,serif" font-size="14.00">Pixman</text>
</g>
<!-- Acceleration_2D&#45;&gt;Pixman -->
<g id="edge15" class="edge"><title>Acceleration_2D&#45;&gt;Pixman</title>
<path fill="none" stroke="black" d="M959,-103.697C959,-95.9827 959,-86.7125 959,-78.1124"/>
<polygon fill="black" stroke="black" points="962.5,-78.1043 959,-68.1043 955.5,-78.1044 962.5,-78.1043"/>
</g>
<!-- Acceleration_Video&#45;&gt;Video Drivers -->
<g id="edge20" class="edge"><title>Acceleration_Video&#45;&gt;Video Drivers</title>
<path fill="none" stroke="black" d="M794.794,-140.274C799.224,-148.66 805.467,-159.25 812.269,-170.078"/>
<polygon fill="black" stroke="black" points="809.489,-172.229 817.819,-178.775 815.39,-168.463 809.489,-172.229"/>
</g>
<!-- Dispatch&#45;&gt;Video Drivers -->
<g id="edge33" class="edge"><title>Dispatch&#45;&gt;Video Drivers</title>
<path fill="none" stroke="black" d="M616.296,-243.684C629.467,-267.275 655.604,-309.071 688,-335 691.417,-337.735 692.718,-338.091 697,-339 716.782,-343.198 768.218,-343.198 788,-339 814.703,-333.333 830.878,-308.094 840.527,-282.904"/>
<polygon fill="black" stroke="black" points="843.891,-283.887 843.913,-273.292 837.289,-281.561 843.891,-283.887"/>
</g>
<!-- Render -->
<g id="node27" class="node"><title>Render</title>
<ellipse fill="none" stroke="black" cx="358" cy="-122" rx="36.096" ry="18"/>
<text text-anchor="middle" x="358" y="-118.3" font-family="Times,serif" font-size="14.00">Render</text>
</g>
<!-- Dispatch&#45;&gt;Render -->
<g id="edge29" class="edge"><title>Dispatch&#45;&gt;Render</title>
<path fill="none" stroke="red" stroke-dasharray="1,5" d="M593.853,-208.705C584.302,-198.174 570.394,-185.299 555,-179 523.695,-166.19 433.673,-185.258 403,-171 391.897,-165.839 382.203,-156.585 374.684,-147.57"/>
<polygon fill="red" stroke="red" points="377.306,-145.24 368.413,-139.483 371.775,-149.53 377.306,-145.24"/>
</g>
<!-- RandR -->
<g id="node28" class="node"><title>RandR</title>
<ellipse fill="none" stroke="black" cx="565" cy="-122" rx="35.1455" ry="18"/>
<text text-anchor="middle" x="565" y="-118.3" font-family="Times,serif" font-size="14.00">RandR</text>
</g>
<!-- Dispatch&#45;&gt;RandR -->
<g id="edge25" class="edge"><title>Dispatch&#45;&gt;RandR</title>
<path fill="none" stroke="green" d="M600.065,-208.157C593.468,-192.137 583.445,-167.796 575.802,-149.234"/>
<polygon fill="green" stroke="green" points="578.99,-147.782 571.946,-139.868 572.517,-150.448 578.99,-147.782"/>
</g>
<!-- Dispatch&#45;&gt;Xinput -->
<g id="edge27" class="edge"><title>Dispatch&#45;&gt;Xinput</title>
<path fill="none" stroke="blue" stroke-dasharray="1,5" d="M592.599,-208.675C582.918,-198.68 569.343,-186.425 555,-179 541.214,-171.864 534.931,-177.85 521,-171 506.647,-163.942 492.668,-152.817 481.922,-143.054"/>
<polygon fill="blue" stroke="blue" points="484.059,-140.259 474.383,-135.944 479.256,-145.351 484.059,-140.259"/>
</g>
<!-- GLX -->
<g id="node30" class="node"><title>GLX</title>
<ellipse fill="none" stroke="black" cx="647" cy="-122" rx="28.3955" ry="18"/>
<text text-anchor="middle" x="647" y="-118.3" font-family="Times,serif" font-size="14.00">GLX</text>
</g>
<!-- Dispatch&#45;&gt;GLX -->
<g id="edge31" class="edge"><title>Dispatch&#45;&gt;GLX</title>
<path fill="none" stroke="black" d="M613.605,-208.157C619.925,-192.041 629.548,-167.504 636.843,-148.901"/>
<polygon fill="black" stroke="black" points="640.125,-150.117 640.518,-139.53 633.608,-147.562 640.125,-150.117"/>
</g>
<!-- RandR&#45;&gt;Video Drivers -->
<g id="edge35" class="edge"><title>RandR&#45;&gt;Video Drivers</title>
<path fill="none" stroke="black" d="M575.077,-139.521C582.838,-150.591 594.652,-164.321 609,-171 646.909,-188.648 757.876,-164.239 797,-179 797.208,-179.079 797.416,-179.158 797.624,-179.239"/>
<polygon fill="black" stroke="black" points="796.281,-182.474 806.824,-183.521 799.235,-176.128 796.281,-182.474"/>
</g>
<!-- Xinput&#45;&gt;Event_Queue -->
<g id="edge48" class="edge"><title>Xinput&#45;&gt;Event_Queue</title>
<path fill="none" stroke="black" d="M466.005,-138.71C470.016,-154.449 476.27,-178.984 481.086,-197.874"/>
<polygon fill="black" stroke="black" points="477.728,-198.871 483.589,-207.697 484.511,-197.142 477.728,-198.871"/>
</g>
<!-- GLX&#45;&gt;Mesa -->
<g id="edge54" class="edge"><title>GLX&#45;&gt;Mesa</title>
<path fill="none" stroke="black" d="M657.856,-138.699C666.669,-149.985 680.198,-164.34 696,-171 732.255,-186.279 1014.09,-162.927 1050,-179 1060.43,-183.671 1069.52,-192.202 1076.62,-200.66"/>
<polygon fill="black" stroke="black" points="1073.9,-202.862 1082.79,-208.618 1079.43,-198.572 1073.9,-202.862"/>
</g>
<!-- Keyboard -->
<g id="node39" class="node"><title>Keyboard</title>
<ellipse fill="none" stroke="black" cx="150" cy="-122" rx="45.244" ry="18"/>
<text text-anchor="middle" x="150" y="-118.3" font-family="Times,serif" font-size="14.00">Keyboard</text>
</g>
<!-- Keyboard&#45;&gt;Input Drivers -->
<g id="edge40" class="edge"><title>Keyboard&#45;&gt;Input Drivers</title>
<path fill="none" stroke="black" stroke-dasharray="5,2" d="M163.445,-139.708C173.545,-150.867 188.442,-164.625 205,-171 252.29,-189.208 612.052,-165.884 661,-179 671.009,-181.682 681.11,-185.823 690.654,-190.544"/>
<polygon fill="black" stroke="black" points="689.128,-193.696 699.612,-195.22 692.367,-187.49 689.128,-193.696"/>
</g>
<!-- Mouse -->
<g id="node40" class="node"><title>Mouse</title>
<ellipse fill="none" stroke="black" cx="51" cy="-122" rx="35.1455" ry="18"/>
<text text-anchor="middle" x="51" y="-118.3" font-family="Times,serif" font-size="14.00">Mouse</text>
</g>
<!-- Mouse&#45;&gt;Input Drivers -->
<g id="edge42" class="edge"><title>Mouse&#45;&gt;Input Drivers</title>
<path fill="none" stroke="blue" d="M61.3345,-139.655C69.2846,-150.789 81.3714,-164.539 96,-171 124.716,-183.683 630.664,-170.926 661,-179 671.014,-181.665 681.117,-185.798 690.662,-190.515"/>
<polygon fill="blue" stroke="blue" points="689.136,-193.667 699.621,-195.189 692.374,-187.46 689.136,-193.667"/>
</g>
<!-- Gallium -->
<g id="node52" class="node"><title>Gallium</title>
<ellipse fill="none" stroke="black" cx="1102" cy="-122" rx="39.9464" ry="18"/>
<text text-anchor="middle" x="1102" y="-118.3" font-family="Times,serif" font-size="14.00">Gallium</text>
</g>
<!-- Mesa&#45;&gt;Gallium -->
<g id="edge56" class="edge"><title>Mesa&#45;&gt;Gallium</title>
<path fill="none" stroke="black" d="M1094.53,-207.697C1095.92,-191.923 1098,-168.364 1099.61,-150.094"/>
<polygon fill="black" stroke="black" points="1103.1,-150.316 1100.5,-140.047 1096.13,-149.701 1103.1,-150.316"/>
</g>
<!-- Gallium&#45;&gt;Display -->
<g id="edge58" class="edge"><title>Gallium&#45;&gt;Display</title>
<path fill="none" stroke="purple" stroke-dasharray="1,5" d="M1087.96,-139.045C1075.31,-152.676 1055.31,-170.265 1033,-175 1013.6,-179.117 338.401,-179.117 319,-175 300.858,-171.15 284.453,-158.416 272.417,-146.395"/>
<polygon fill="purple" stroke="purple" points="274.924,-143.951 265.512,-139.088 269.837,-148.76 274.924,-143.951"/>
</g>
<!-- FrameBuffer -->
<g id="node55" class="node"><title>FrameBuffer</title>
<ellipse fill="none" stroke="black" cx="856" cy="-449" rx="56.3173" ry="18"/>
<text text-anchor="middle" x="856" y="-445.3" font-family="Times,serif" font-size="14.00">FrameBuffer</text>
</g>
</g>
</svg>
