<?xml version="1.0" encoding="UTF-8" standalone="no"?>
<!-- Created with Inkscape (http://www.inkscape.org/) -->
<svg xmlns:dc="http://purl.org/dc/elements/1.1/" xmlns:cc="http://web.resource.org/cc/" xmlns:rdf="http://www.w3.org/1999/02/22-rdf-syntax-ns#" xmlns:svg="http://www.w3.org/2000/svg" xmlns="http://www.w3.org/2000/svg" xmlns:xlink="http://www.w3.org/1999/xlink" xmlns:sodipodi="http://sodipodi.sourceforge.net/DTD/sodipodi-0.dtd" xmlns:inkscape="http://www.inkscape.org/namespaces/inkscape" width="1224.8678" height="874.58014" id="svg2" sodipodi:version="0.32" inkscape:version="0.44.1" version="1.0" sodipodi:docbase="/home/ill" sodipodi:docname="nekoxcb.svg" inkscape:export-filename="/home/ill/nekoxcb.png" inkscape:export-xdpi="22.040001" inkscape:export-ydpi="22.040001">
  <defs id="defs4">
    <linearGradient id="linearGradient6465">
      <stop id="stop6467" offset="0" style="stop-color: white; stop-opacity: 1;"/>
      <stop id="stop6469" offset="1" style="stop-color: rgb(190, 190, 190); stop-opacity: 1;"/>
    </linearGradient>
    <linearGradient id="linearGradient6441">
      <stop style="stop-color: rgb(43, 94, 130); stop-opacity: 1;" offset="0" id="stop6443"/>
      <stop style="stop-color: rgb(202, 223, 237); stop-opacity: 1;" offset="1" id="stop6445"/>
    </linearGradient>
    <linearGradient id="linearGradient5539">
      <stop style="stop-color: black; stop-opacity: 1;" offset="0" id="stop5541"/>
      <stop style="stop-color: black; stop-opacity: 1;" offset="1" id="stop5543"/>
    </linearGradient>
    <linearGradient id="linearGradient4084">
      <stop style="stop-color: black; stop-opacity: 1;" offset="0" id="stop4086"/>
      <stop style="stop-color: rgb(70, 70, 70); stop-opacity: 1;" offset="1" id="stop4088"/>
    </linearGradient>
    <linearGradient id="linearGradient2887">
      <stop id="stop2889" offset="0" style="stop-color: rgb(157, 157, 157); stop-opacity: 1;"/>
      <stop id="stop2891" offset="1" style="stop-color: rgb(217, 217, 217); stop-opacity: 1;"/>
    </linearGradient>
    <linearGradient id="linearGradient2853">
      <stop id="stop2855" offset="0" style="stop-color: white; stop-opacity: 1;"/>
      <stop id="stop2857" offset="1" style="stop-color: rgb(222, 222, 222); stop-opacity: 1;"/>
    </linearGradient>
    <linearGradient id="linearGradient2826">
      <stop style="stop-color: white; stop-opacity: 1;" offset="0" id="stop2828"/>
      <stop style="stop-color: white; stop-opacity: 0;" offset="1" id="stop2830"/>
    </linearGradient>
    <linearGradient inkscape:collect="always" xlink:href="#linearGradient2853" id="linearGradient2875" gradientUnits="userSpaceOnUse" x1="348.58267" y1="627.35382" x2="363.54575" y2="627.35382"/>
    <linearGradient inkscape:collect="always" xlink:href="#linearGradient6441" id="linearGradient6447" x1="-65.983803" y1="484.28513" x2="-65.983803" y2="706.79858" gradientUnits="userSpaceOnUse"/>
    <linearGradient inkscape:collect="always" xlink:href="#linearGradient6441" id="linearGradient6455" x1="670.34186" y1="817.21539" x2="1096.9532" y2="198.5399" gradientUnits="userSpaceOnUse"/>
    <linearGradient inkscape:collect="always" xlink:href="#linearGradient6465" id="linearGradient6463" x1="321.61545" y1="975.60553" x2="299.63205" y2="1104.9915" gradientUnits="userSpaceOnUse"/>
    <radialGradient inkscape:collect="always" xlink:href="#linearGradient6465" id="radialGradient6487" cx="446.21426" cy="745.23834" fx="446.21426" fy="745.23834" r="86.883537" gradientTransform="matrix(-1.79031, 0.315757, -0.317459, -1.79997, 1430.88, 1857.86)" gradientUnits="userSpaceOnUse"/>
  </defs>
  <sodipodi:namedview id="base" pagecolor="#ffffff" bordercolor="#666666" borderopacity="1.0" gridtolerance="10000" guidetolerance="10" objecttolerance="10" inkscape:pageopacity="0.0" inkscape:pageshadow="2" inkscape:zoom="0.75999939" inkscape:cx="612.4339" inkscape:cy="437.29007" inkscape:document-units="px" inkscape:current-layer="layer1" showguides="true" inkscape:guide-bbox="true" inkscape:window-width="1592" inkscape:window-height="1132" inkscape:window-x="0" inkscape:window-y="0"/>
  <metadata id="metadata7">
    <rdf:RDF>
      <cc:Work rdf:about="">
        <dc:format>image/svg+xml</dc:format>
        <dc:type rdf:resource="http://purl.org/dc/dcmitype/StillImage"/>
      </cc:Work>
    </rdf:RDF>
  </metadata>
  <g inkscape:groupmode="layer" id="layer2" inkscape:label="asd" style="display: inline;" transform="translate(66.1169, -138.174)"/>
  <g inkscape:label="Layer 1" inkscape:groupmode="layer" id="layer1" style="display: inline;" transform="translate(66.1169, -138.174)">
    <path sodipodi:nodetypes="czccccczcczccczzzzzzzzcccccccccc" id="path6431" d="M 972.33545,785.8284 C 1044.0141,834.40743 1060.5031,914.26423 1055.9208,931.16163 C 1051.3971,947.84293 1015.288,971.08963 1016.6099,931.26653 C 1022.7728,974.53253 966.53535,984.99953 967.68135,952.68903 C 962.65185,976.96223 942.49515,986.72923 904.60555,974.95353 C 897.22505,996.61993 839.9886,1009.1444 834.1874,987.10823 C 841.18614,1018.9297 726.33105,1021.5149 727.63134,976.42013 C 721.33996,996.61943 697.64546,993.01393 670.31517,953.14463 C 642.86172,913.09563 707.40805,808.91883 734.27332,802.04357 C 707.98051,808.52513 683.99799,846.71746 665.53925,897.43033 C 672.28782,899.81573 613.19322,918.15873 579.08965,895.43973 C 544.28331,872.25263 522.87083,844.92299 564.35578,764.99157 C 573.03363,714.57476 545.05992,688.83278 617.21292,594.47163 C 626.45964,563.64266 636.72122,540.89883 661.74374,523.21636 C 661.74374,523.21636 647.48789,514.41023 647.21292,498.61376 C 646.93796,482.8173 661.28367,419.8003 679.05991,386.42014 C 696.83616,353.03998 741.33012,286.33366 752.92721,258.19535 C 764.5243,230.05703 774.78076,188.67464 778.8866,159.89876 C 782.99245,131.12288 804.52017,138.97482 816.20277,150.70586 C 827.88537,162.4369 828.16871,175.40786 822.99899,209.69571 C 817.82927,243.98356 810.13134,253.90963 780.07006,304.74647 C 750.00879,355.58331 720.64273,376.1515 708.81481,414.05321 C 696.98689,451.95492 688.06799,478.42566 703.34609,504.39496 C 746.60793,484.91563 773.01912,493.5207 801.57841,498.54563 C 811.76147,496.28968 812.76109,485.39191 815.17424,477.18855 C 835.36642,446.62293 832.08604,356.44756 852.68215,312.97126 C 893.61075,325.85212 925.67125,349.62145 942.50885,386.59346 C 993.22945,340.17053 1011.2412,336.52067 1027.6313,334.99157 C 1071.9679,390.75747 1083.7604,454.03355 1028.3935,532.80796 C 1025.1264,549.18974 1022.027,551.53048 1024.0504,568.22115 C 1015.3214,575.06834 1000.3931,585.53272 1000.4884,594.99157 C 998.00385,660.73838 974.59955,726.96298 972.33545,785.8284 z " style="opacity: 1; fill: url(#linearGradient6455) rgb(0, 0, 0); fill-opacity: 1; fill-rule: evenodd; stroke: none; stroke-width: 4; stroke-linecap: butt; stroke-linejoin: round; stroke-miterlimit: 4; stroke-dasharray: none; stroke-opacity: 1; display: inline;"/>
    <text xml:space="preserve" style="font-size: 283.436px; font-style: normal; font-variant: normal; font-weight: normal; font-stretch: normal; line-height: 100%; text-anchor: start; fill: url(#linearGradient6447) rgb(0, 0, 0); fill-opacity: 1; stroke: black; stroke-width: 8; stroke-linecap: butt; stroke-linejoin: round; stroke-miterlimit: 4; stroke-dasharray: none; stroke-dashoffset: 0pt; stroke-opacity: 1; font-family: Sans;" x="-67.4488" y="698.716" id="text1933" sodipodi:linespacing="100%" transform="scale(1.01717, 0.983118)"><tspan sodipodi:role="line" id="tspan1935" x="-67.4488" y="698.716" style="font-weight: bold; fill: url(#linearGradient6447) rgb(0, 0, 0); fill-opacity: 1; stroke: black; stroke-width: 8; stroke-linejoin: round; stroke-miterlimit: 4; stroke-dasharray: none; stroke-dashoffset: 0pt; stroke-opacity: 1;">XCB</tspan></text>
    <g id="g3047"/>
    <path style="fill: black; fill-opacity: 1; fill-rule: evenodd; stroke: none; stroke-width: 0.25pt; stroke-linecap: butt; stroke-linejoin: miter; stroke-opacity: 1; display: inline;" d="M 943.28431,387.16656 C 927.50747,383.09453 913.17891,378.85572 901.85606,385.60053 C 901.85606,385.60053 900.97627,389.00785 903.01319,388.9174 C 909.30324,388.64349 916.28666,389.41863 910.53671,391.11946 C 895.24037,397.32119 905.15609,411.69998 908.30214,425.02218 C 895.19873,432.94049 907.27741,441.60638 909.83751,443.18997 C 919.75741,429.85176 917.78367,411.3424 941.02189,403.79477 L 941.29303,400.27135 C 935.47498,399.48149 931.28685,398.21492 935.75878,397.20061 C 940.1151,396.21252 943.28431,387.16656 943.28431,387.16656 z " id="path4990" sodipodi:nodetypes="ccsccccczc"/>
    <path style="fill: black; fill-opacity: 1; fill-rule: evenodd; stroke: none; stroke-width: 0.25pt; stroke-linecap: butt; stroke-linejoin: miter; stroke-opacity: 1;" d="M 844.81588,611.95391 C 854.32136,604.64561 836.21264,605.70756 840.47226,590.74683 C 837.94995,590.13754 834.64637,592.89408 830.76299,596.36799 C 833.13069,591.42819 834.05551,586.48838 835.10661,581.54858 C 833.11653,580.90685 830.3352,583.43013 827.69692,585.38119 C 831.5193,580.09186 832.61632,576.98281 833.06256,574.39439 C 829.22996,574.41439 826.16387,582.08137 821.56475,583.08162 C 822.90774,577.48933 832.2285,566.75267 833.06256,559.83049 C 827.58748,561.7732 824.14926,566.09584 820.54272,569.28424 C 827.29777,561.25635 827.53051,552.34082 832.80705,548.33268 L 823.09778,544.24456 C 801.20475,555.16728 791.69933,567.81999 790.90391,582.82612 C 796.25436,584.91789 798.78427,577.34235 802.14622,570.81729 C 800.6906,578.99867 801.30228,585.80186 803.93476,591.25785 C 811.39985,594.7846 812.46649,579.7212 815.94359,582.82611 C 810.66005,592.59441 810.80725,594.78657 810.83345,599.68958 C 814.98345,599.46501 819.14925,599.24835 824.63083,599.68958 C 821.95174,601.41612 821.01235,604.01251 821.05373,607.09928 C 828.27765,604.86149 832.32151,607.93424 838.68371,605.82175 C 837.27194,618.23328 841.74857,612.97961 844.81588,611.95391 z " id="path2814" sodipodi:nodetypes="cccccccccccccccccccc"/>
    <path style="fill: black; fill-opacity: 1; fill-rule: evenodd; stroke: none; stroke-width: 0.25pt; stroke-linecap: butt; stroke-linejoin: miter; stroke-opacity: 1; display: inline;" d="M 981.74033,701.37305 L 971.09673,769.77265 C 968.28579,766.86415 968.48261,776.54555 966.14622,778.02355 C 963.64152,770.40715 952.27866,774.20675 949.80952,768.61755 C 949.14946,761.61825 948.48939,754.89185 947.82932,753.93105 C 945.98636,758.27595 948.39595,770.63095 944.52898,771.42285 C 942.02783,760.28575 923.38987,768.82065 923.24178,747.33035 C 934.43039,746.38515 943.40996,742.17695 947.16925,726.37315 C 950.68613,724.56715 952.12324,729.44435 950.79963,740.39965 C 956.14804,736.77355 950.63002,728.83915 958.88546,733.46895 C 957.26386,717.43825 964.00673,725.27255 968.45646,710.53155 C 969.43356,709.93105 971.15209,709.51155 970.84357,711.37285 C 967.19661,733.37445 977.0473,713.25805 981.74033,701.37305 z " id="path4596" sodipodi:nodetypes="cccccccccccsc"/>
    <g id="g2865" transform="translate(594.267, -134.447)">
      <g id="g2838">
        <path style="fill: black; fill-opacity: 1; fill-rule: evenodd; stroke: black; stroke-width: 2; stroke-linecap: butt; stroke-linejoin: miter; stroke-miterlimit: 4; stroke-dasharray: none; stroke-opacity: 1;" d="M 368.70568,613.95598 C 357.96827,605.65439 348.09183,603.0818 337.89603,616.48136 C 327.70022,629.88092 329.66521,636.43647 332.34018,646.78593 C 335.08933,657.42236 352.99959,659.20555 361.38207,650.06893 C 369.76454,640.93231 373.83403,632.16453 368.70568,613.95598 z " id="path2834" sodipodi:nodetypes="czzzc"/>
        <path style="fill: black; fill-opacity: 1; fill-rule: evenodd; stroke: black; stroke-width: 2; stroke-linecap: butt; stroke-linejoin: miter; stroke-miterlimit: 4; stroke-dasharray: none; stroke-opacity: 1;" d="M 271.4931,588.70112 C 263.30705,581.92938 253.21317,581.2641 244.25555,591.55565 C 235.60714,605.20245 236.73928,613.40104 241.20596,621.31834 C 245.67265,629.23563 257.28373,630.31919 264.64907,622.19654 C 272.0144,614.0739 273.76801,605.82921 271.4931,588.70112 z " id="path2836" sodipodi:nodetypes="cczzc"/>
      </g>
    </g>
    <path style="fill: none; fill-opacity: 0.75; fill-rule: evenodd; stroke: black; stroke-width: 4; stroke-linecap: round; stroke-linejoin: miter; marker-start: none; stroke-miterlimit: 4; stroke-dasharray: none; stroke-opacity: 1;" d="M 616.45516,674.74987 C 633.70827,711.16656 668.86063,737.77536 733.59801,721.17844" id="path2893" sodipodi:nodetypes="cc"/>
    <path style="fill: none; fill-opacity: 0.75; fill-rule: evenodd; stroke: black; stroke-width: 4; stroke-linecap: round; stroke-linejoin: miter; stroke-miterlimit: 4; stroke-dasharray: none; stroke-opacity: 1;" d="M 769.3123,641.17845 C 742.26591,689.13531 732.95997,744.48403 728.59801,801.89273" id="path2897" sodipodi:nodetypes="cc"/>
    <path style="fill: none; fill-opacity: 0.75; fill-rule: evenodd; stroke: black; stroke-width: 3; stroke-linecap: round; stroke-linejoin: miter; stroke-miterlimit: 4; stroke-dasharray: none; stroke-opacity: 1; display: inline;" d="M 849.83524,563.85673 C 842.2363,557.51445 808.72302,537.76833 803.8733,499.71205" id="path2901" sodipodi:nodetypes="cc"/>
    <g id="g2928" transform="translate(499.312, -94.0409)">
      <path sodipodi:nodetypes="cccccccc" id="path2917" d="M 498.0199,685.48523 C 431.57337,605.0185 361.32379,596.18377 324.25282,633.74757 C 351.12409,661.11441 349.74125,651.69913 351.78036,659.91216 C 349.93322,677.81636 346.99793,682.00126 345.15079,696.12857 C 364.16074,701.12058 367.9459,745.27011 379.19089,765.79203 C 396.86545,760.36965 399.57668,793.85193 407.68958,813.28985 C 422.17969,824.14562 452.09117,790.54553 460.72881,759.45899 C 470.15141,716.38799 472.6804,702.69127 498.0199,685.48523 z " style="fill: url(#radialGradient6487) rgb(0, 0, 0); fill-opacity: 1; fill-rule: nonzero; stroke: none; stroke-width: 0.25pt; stroke-linecap: butt; stroke-linejoin: miter; stroke-opacity: 1; display: inline;"/>
      <path sodipodi:nodetypes="ccccccccccccc" id="path2922" d="M 475.76978,881.37005 C 424.1563,878.38394 404.02843,901.78108 372.85785,923.32645 C 325.18669,891.96152 276.18503,887.20665 226.40625,897.99428 C 241.75118,840.13642 154.31444,838.4228 64.913681,856.03788 C 52.346865,882.29886 45.138732,904.09426 41.956403,922.53483 C 43.333686,996.33475 116.19136,1013.1956 169.47807,991.82315 C 142.19466,1046.1365 215.99357,1105.3449 227.19788,1071.3613 C 225.38533,1110.0904 338.16217,1118.0039 334.06593,1081.1863 C 347.75597,1110.6066 407.93967,1078.4492 403.50608,1068.1223 C 406.43768,1068.8874 457.26665,1089.8907 466.27104,1049.6197 C 475.45467,1083.585 523.62193,1059.8102 516.1482,1027.0666 C 506.76719,1050.0596 555.85552,1060.9999 557.3077,1011.9891 C 549.90217,951.13783 505.73607,900.14885 475.76978,881.37005 z " style="fill: url(#linearGradient6463) rgb(0, 0, 0); fill-opacity: 1; fill-rule: evenodd; stroke: none; stroke-width: 0.25pt; stroke-linecap: butt; stroke-linejoin: miter; stroke-opacity: 1; display: inline;"/>
      <path style="opacity: 1; fill: url(#linearGradient2875) rgb(0, 0, 0); fill-opacity: 1; fill-rule: evenodd; stroke: none; stroke-width: 0.25pt; stroke-linecap: butt; stroke-linejoin: miter; stroke-opacity: 1; display: inline;" d="M 363.89532,620.77451 C 364.17706,615.24077 360.02962,614.56072 352.79578,614.96613 C 343.22144,632.51509 351.56578,640.25797 361.88715,639.71487 C 363.99926,633.40142 363.61359,626.30825 363.89532,620.77451 z " id="path2843" sodipodi:nodetypes="cccz" transform="translate(94.9543, -40.4061)"/>
      <path style="opacity: 1; fill: white; fill-opacity: 1; fill-rule: evenodd; stroke: none; stroke-width: 0.25pt; stroke-linecap: butt; stroke-linejoin: miter; stroke-opacity: 1; display: inline;" d="M 266.94737,595.50737 C 266.01182,591.05683 266.23917,589.72912 256.59331,589.69899 C 247.01897,607.24795 255.36331,614.99083 265.68468,614.44773 C 267.79679,608.13428 267.88292,599.95792 266.94737,595.50737 z " id="path2859" sodipodi:nodetypes="cccz" transform="translate(94.9543, -40.4061)"/>
      <path sodipodi:nodetypes="ccczzz" id="path2904" d="M 382.05862,611.70679 C 384.33146,612.0856 395.1906,617.51517 395.1906,617.51517 C 395.57752,613.31076 398.82997,609.36686 385.08908,603.87811 C 374.82093,602.92359 369.29235,602.11147 368.42156,605.39334 C 367.55077,608.67521 377.61996,618.26755 380.03832,618.02025 C 382.20662,617.79852 379.81324,611.33256 382.05862,611.70679 z " style="fill: black; fill-opacity: 1; fill-rule: evenodd; stroke: black; stroke-width: 1; stroke-linecap: butt; stroke-linejoin: miter; stroke-miterlimit: 4; stroke-dasharray: none; stroke-opacity: 1;"/>
      <path sodipodi:nodetypes="ccc" id="path2908" d="M 498.87779,636.6576 C 528.05254,640.12374 610.99477,662.60498 659.43858,673.07805 C 617.23428,660.6971 546.95417,642.5869 501.09676,630.20595" style="fill: black; fill-opacity: 1; fill-rule: evenodd; stroke: none; stroke-width: 3; stroke-linecap: butt; stroke-linejoin: round; stroke-miterlimit: 4; stroke-dasharray: none; stroke-opacity: 1; display: inline;"/>
      <path sodipodi:nodetypes="ccc" id="path2910" d="M 518.6987,668.31706 C 519.59161,665.69913 597.00313,684.743 648.7346,720.91576 C 640.96126,707.11772 586.23365,674.12349 522.27013,658.31706" style="fill: black; fill-opacity: 1; fill-rule: evenodd; stroke: none; stroke-width: 3; stroke-linecap: butt; stroke-linejoin: round; stroke-miterlimit: 4; stroke-dasharray: none; stroke-opacity: 1; display: inline;"/>
      <path sodipodi:nodetypes="ccc" id="path2912" d="M 312.38212,583.27981 C 309.2518,576.93287 244.14974,570.29486 232.5508,565.16783 C 254.46628,559.85507 291.51622,572.82278 313.05333,575.40113" style="fill: black; fill-opacity: 1; fill-rule: evenodd; stroke: none; stroke-width: 3; stroke-linecap: butt; stroke-linejoin: round; stroke-miterlimit: 4; stroke-dasharray: none; stroke-opacity: 1; display: inline;"/>
      <path sodipodi:nodetypes="czccccczcczccczzzzzzzzcccccccccc" id="path1937" d="M 377.56128,920.34187 C 449.23998,968.9209 465.72899,1048.7777 461.14665,1065.6751 C 456.62291,1082.3564 420.51383,1105.6031 421.83575,1065.78 C 427.99862,1109.046 371.76115,1119.513 372.90714,1087.2025 C 367.87768,1111.4757 347.72098,1121.2427 309.83134,1109.467 C 302.45084,1131.1334 245.2144,1143.6579 239.4132,1121.6217 C 246.41194,1153.4432 131.55685,1156.0284 132.85714,1110.9336 C 126.56576,1131.1329 102.87126,1127.5274 75.540971,1087.6581 C 48.087517,1047.6091 112.63385,943.4323 139.49912,936.55704 C 113.20631,943.0386 89.223786,981.23093 70.765049,1031.9438 C 77.513617,1034.3292 18.419021,1052.6722 -15.68455,1029.9532 C -50.490895,1006.7661 -71.90337,979.43646 -30.418419,899.50504 C -21.740568,849.08823 -49.714283,823.34625 22.438724,728.9851 C 31.685444,698.15613 41.947015,675.4123 66.969542,657.72983 C 66.969542,657.72983 52.713686,648.9237 52.438724,633.12723 C 52.163761,617.33077 66.509473,554.31377 84.285714,520.93361 C 102.06196,487.55345 146.55592,420.84713 158.15301,392.70882 C 169.7501,364.5705 180.00656,323.18811 184.1124,294.41223 C 188.21825,265.63635 209.74597,273.48829 221.42857,285.21933 C 233.11117,296.95037 233.39451,309.92133 228.22479,344.20918 C 223.05507,378.49703 215.35714,388.4231 185.29586,439.25994 C 155.23459,490.09678 125.86853,510.66497 114.04061,548.56668 C 102.21269,586.46839 93.293792,612.93913 108.57189,638.90843 C 151.83373,619.4291 178.24492,628.03417 206.80421,633.0591 C 216.98727,630.80315 217.98689,619.90538 220.40004,611.70202 C 240.59222,581.1364 237.31184,490.96103 257.9079,447.48473 C 298.83657,460.36559 330.89708,484.13492 347.7346,521.10693 C 398.45524,474.684 416.46707,471.03414 432.85714,469.50504 C 477.19378,525.27094 488.98625,588.54702 433.61935,667.32143 C 430.3522,683.70321 427.25289,686.04395 429.27621,702.73462 C 420.54721,709.58181 405.61896,720.04619 405.71429,729.50504 C 403.22968,795.25185 379.82534,861.47645 377.56128,920.34187 z " style="opacity: 1; fill: none; fill-opacity: 1; fill-rule: evenodd; stroke: black; stroke-width: 4; stroke-linecap: butt; stroke-linejoin: round; stroke-miterlimit: 4; stroke-dasharray: none; stroke-opacity: 1; display: inline;" transform="translate(94.9543, -40.4061)"/>
    </g>
    <path style="fill: black; fill-opacity: 1; fill-rule: evenodd; stroke: none; stroke-width: 0.25pt; stroke-linecap: butt; stroke-linejoin: miter; stroke-opacity: 1; display: inline;" d="M 998.7376,622.68824 C 995.13742,622.64178 992.47406,620.72169 987.86738,622.68824 C 987.30168,624.51381 985.59468,626.10761 985.35887,628.95952 C 969.13606,621.39416 979.57448,614.64174 989.12164,602.62015 C 989.67981,600.53191 990.08271,597.97784 989.53972,592.58611 C 1003.1972,584.53526 1002.8488,571.97634 1012.9525,573.3542 L 1011.0711,567.08292 C 1002.8488,562.50512 992.74504,560.51445 984.5227,560.39356 C 1000.0985,543.04671 1013.7948,537.91617 1027.1674,534.89037 L 1023.5617,567.56204 L 999.57377,589.65952 L 998.7376,622.68824 z " id="path1922" sodipodi:nodetypes="cccccccccccc"/>
    <path style="fill: none; fill-opacity: 0.75; fill-rule: evenodd; stroke: black; stroke-width: 4; stroke-linecap: round; stroke-linejoin: miter; stroke-miterlimit: 4; stroke-dasharray: none; stroke-opacity: 1;" d="M 874.3123,831.17845 C 862.43825,772.41119 896.37213,731.98127 885.74088,722.60702 C 901.0745,742.75056 947.53799,710.76852 962.16945,665.46416" id="path2895" sodipodi:nodetypes="ccc"/>
    <path style="fill: none; fill-opacity: 0.75; fill-rule: evenodd; stroke: black; stroke-width: 4; stroke-linecap: round; stroke-linejoin: miter; stroke-miterlimit: 4; stroke-dasharray: none; stroke-opacity: 1;" d="M 729.06489,797.65199 C 734.32001,758.50106 686.24459,753.15099 650.02659,752.17607" id="path2899" sodipodi:nodetypes="cc"/>
    <path style="fill: none; fill-opacity: 0.75; fill-rule: evenodd; stroke: black; stroke-width: 4; stroke-linecap: round; stroke-linejoin: miter; stroke-miterlimit: 4; stroke-dasharray: none; stroke-opacity: 1;" d="M 1010.857,838.03849 C 1034.6529,774.54063 997.05105,743.26464 982.51044,701.7926" id="path5484" transform="translate(-107.175, 138.174)" sodipodi:nodetypes="cc"/>
    <path style="fill: black; fill-opacity: 1; fill-rule: evenodd; stroke: none; stroke-width: 0.25pt; stroke-linecap: butt; stroke-linejoin: miter; stroke-opacity: 1;" d="M 757.90058,657.7343 C 756.21757,673.88005 754.18637,690.14187 754.84807,705.50605 C 758.92998,702.1474 761.04288,693.75455 763.08985,681.84912 C 766.2732,682.92921 769.16028,687.19303 763.54772,696.8064 C 775.92468,692.76768 770.91724,700.19557 771.02637,706.26918 C 780.73038,694.97011 779.07249,698.6612 778.96289,712.06894 C 792.97546,696.72568 788.63605,728.22333 804.45133,719.70021 C 805.72375,726.31452 808.64956,734.58222 805.36708,736.64163 C 803.59946,737.36925 801.42598,734.44405 799.26206,731.60499 C 798.08093,738.61106 792.78245,740.56585 791.32554,728.70511 C 786.5884,745.24042 785.10145,732.52403 783.08377,724.58423 C 775.55832,744.354 773.80402,738.44216 774.38412,722.14222 C 770.36756,733.91223 765.43818,757.38305 765.68448,714.51095 C 760.66805,747.59718 757.99752,744.32202 756.2217,727.17886 C 753.0744,756.46696 745.72434,757.17115 748.52722,718.41599 C 747.12631,712.08312 743.85774,716.8686 740.93596,721.1823 C 738.42286,724.8926 755.14649,676.01876 757.90058,657.7343 z " id="path5486" sodipodi:nodetypes="cccccccccccccccsc"/>
    <path style="fill: black; fill-opacity: 1; fill-rule: nonzero; stroke: none; stroke-width: 0.25pt; stroke-linecap: butt; stroke-linejoin: miter; stroke-opacity: 1;" d="M 772.20842,199.42739 C 775.08263,182.44402 774.99566,166.44807 780.20172,150.55983 C 783.57111,145.7704 784.38725,138.5654 795.69409,139.8817 C 801.57094,140.22402 807.91689,140.87091 815.35492,149.95582 C 827.53078,160.75397 828.29218,177.111 823.46643,200.82681 C 814.95233,192.90422 807.55814,198.30914 800.49635,196.58515 C 798.09937,194.45283 799.50298,157.68529 796.99311,156.7207 C 794.48324,155.75611 793.58622,163.10986 794.57708,172.78728 C 801.88637,172.97411 798.98842,174.57778 800.85875,175.68652 C 792.17861,177.20531 791.82565,185.36413 790.34903,191.26989 C 790.74288,193.8635 786.81213,193.61608 786.44109,191.1259 C 782.95096,167.70252 784.62533,188.23365 772.20842,199.42739 z " id="path5488" sodipodi:nodetypes="cccccczcccsc"/>
    <path style="fill: black; fill-opacity: 1; fill-rule: evenodd; stroke: none; stroke-width: 0.25pt; stroke-linecap: butt; stroke-linejoin: miter; stroke-opacity: 1; display: inline;" d="M 805.18436,509.18705 C 786.07399,506.0664 767.70218,497.61444 757.58137,498.92139 C 729.92598,498.5664 714.88687,500.46812 699.66805,503.96687 C 684.4957,507.45494 657.71785,520.64137 643.72906,537.96901 C 629.74027,555.29664 627.53402,560.54485 622.01156,578.33283 L 623.98588,579.42968 C 630.93563,578.42767 650.85106,575.84095 652.28443,569.11935 C 652.92401,567.60599 653.3015,566.11134 645.92274,565.17072 C 654.62081,563.42538 663.09542,561.5769 664.34971,556.39597 C 658.73447,554.36076 651.40925,557.6299 646.14211,555.73787 C 648.27597,549.97114 665.79884,550.31678 686.28657,531.82669 C 678.20783,531.47394 669.85393,536.20155 666.54339,532.48479 C 684.08975,529.70299 698.302,518.01888 704.05542,514.71594 C 709.73271,511.4567 718.34488,512.67048 724.23734,513.18036 C 724.79711,516.32884 721.10759,515.43255 722.04365,520.20015 C 738.99196,520.35032 757.87227,515.67051 772.7178,521.07763 C 750.81004,522.40067 732.69736,518.70826 726.43102,528.09742 C 749.99661,528.33263 767.99611,522.89113 783.46686,527.65868 C 756.15269,529.72779 726.01523,526.16576 722.70175,538.84648 C 723.33553,540.74765 726.18179,541.32133 729.72155,541.47891 C 742.61579,540.34057 756.56618,535.32968 767.89169,539.94333 C 755.79351,541.1206 743.04371,540.99464 732.57334,545.42754 C 735.1965,563.13254 749.45958,567.44267 758.23947,580.74589 C 756.58633,583.64859 750.94167,580.82625 751.87778,585.13326 C 755.4597,589.2778 764.23604,589.09367 770.96285,590.61747 C 773.75218,589.37438 773.13725,588.1313 772.49843,586.88821 C 767.83434,586.67207 764.39102,585.99813 764.38179,584.03642 C 768.96212,584.22938 772.92859,583.80848 774.03401,580.52652 C 771.17357,579.85662 768.86617,578.77193 768.33043,576.35851 C 768.59354,571.90089 773.36429,571.00127 776.2277,565.82882 C 775.55648,564.51261 774.15663,563.1964 772.93717,561.88019 C 782.3119,559.80744 781.33401,546.24096 794.87403,545.42754 C 791.45425,544.63101 788.20466,543.41542 787.63486,541.4789 C 788.16161,540.96704 789.52127,540.45518 791.80287,539.94333 C 790.23767,537.57408 788.43176,535.16472 790.26728,533.36227 C 803.87223,527.71954 813.77321,525.94549 820.94395,539.60539 L 805.18436,509.18705 z " id="path5490" sodipodi:nodetypes="cczzcccccccczcccccccccccccccccccccccc"/>
    <path style="fill: black; fill-opacity: 1; fill-rule: evenodd; stroke: none; stroke-width: 0.25pt; stroke-linecap: butt; stroke-linejoin: miter; stroke-opacity: 1;" d="M 765.22449,227.09372 L 740.81375,284.6172 C 742.64389,283.87499 741.92318,289.02553 744.99522,289.58976 C 748.6493,289.36268 750.15613,274.36025 755.95745,269.36048 C 756.76782,275.61349 747.8064,284.55316 751.32393,293.77123 C 755.30692,288.52391 758.66685,279.56252 761.83412,272.41183 C 765.69789,278.21342 755.54916,289.99127 758.78278,290.94591 C 762.01639,291.90056 763.43451,280.21478 770.87513,284.05214 C 778.40487,287.93545 776.91894,251.60225 774.71756,249.80928 C 772.57258,248.06224 768.50187,256.39227 767.0327,254.89485 C 765.61784,253.45278 775.85087,232.92047 772.45731,231.61423 C 769.1995,230.36025 764.57766,245.03093 765.22449,227.09372 z " id="path5493" sodipodi:nodetypes="cccccczzzzzc"/>
    <path style="fill: black; fill-opacity: 1; fill-rule: evenodd; stroke: none; stroke-width: 0.25pt; stroke-linecap: butt; stroke-linejoin: miter; stroke-opacity: 1;" d="M 735.21793,363.67039 L 724.72547,376.36215 C 721.07874,373.12162 713.16444,398.90515 709.19685,394.17669 C 707.59988,392.77763 707.81878,389.54055 710.85468,383.4521 C 705.79538,382.03764 702.82583,382.90286 699.97004,385.45242 C 700.30884,370.71465 707.61221,359.50167 721.54157,351.32019 C 719.75918,357.94814 720.63277,362.77038 724.33329,365.67071 C 730.96804,363.39792 733.41678,349.3879 738.79714,348.46732 C 741.63694,355.48184 735.36905,358.22337 735.21793,363.67039 z " id="path5514" sodipodi:nodetypes="ccccccccc"/>
    <path style="fill: black; fill-opacity: 1; fill-rule: evenodd; stroke: none; stroke-width: 0.25pt; stroke-linecap: butt; stroke-linejoin: miter; stroke-opacity: 1;" d="M 672.08907,401.43029 L 650.22487,462.44412 C 669.22577,466.00907 672.80797,458.29813 678.38507,447.33375 C 670.51977,453.80649 673.65397,440.76423 670.60107,440.80882 C 667.54767,440.85341 669.09197,449.00353 665.79317,449.85215 C 666.03887,434.31365 667.56977,419.10559 672.08907,401.43029 z " id="path5516" sodipodi:nodetypes="ccczcc"/>
    <path style="fill: none; fill-opacity: 0.75; fill-rule: evenodd; stroke: black; stroke-width: 4; stroke-linecap: butt; stroke-linejoin: miter; stroke-miterlimit: 4; stroke-dasharray: none; stroke-opacity: 1;" d="M 818.70714,588.02768 C 819.09331,601.28315 817.94529,614.53863 823.92424,627.7941" id="path5519" transform="translate(-107.175, 138.174)" sodipodi:nodetypes="cc"/>
    <path style="fill: none; fill-opacity: 0.75; fill-rule: evenodd; stroke: black; stroke-width: 4; stroke-linecap: butt; stroke-linejoin: miter; stroke-miterlimit: 4; stroke-dasharray: none; stroke-opacity: 1;" d="M 800.53275,618.47024 C 802.62877,608.00893 802.46632,597.03451 799.06301,587.30645" id="path5521" transform="translate(-107.175, 138.174)" sodipodi:nodetypes="cc"/>
  </g>
</svg>